<mxfile host="app.diagrams.net" agent="Mozilla/5.0 (Windows NT 10.0; Win64; x64) AppleWebKit/537.36 (KHTML, like Gecko) Chrome/127.0.0.0 Safari/537.36 OPR/113.0.0.0" version="24.8.3">
  <diagram name="PÃ¡gina-1" id="nPEkbyJLMctUS6vtj-rc">
    <mxGraphModel dx="1943" dy="1085" grid="0" gridSize="10" guides="1" tooltips="1" connect="1" arrows="1" fold="1" page="0" pageScale="1" pageWidth="827" pageHeight="1169" math="0" shadow="0">
      <root>
        <mxCell id="0" />
        <mxCell id="1" parent="0" />
        <mxCell id="lOKb49YVc73qP3Tbzx3c-67" value="" style="shape=image;verticalLabelPosition=bottom;labelBackgroundColor=default;verticalAlign=top;aspect=fixed;imageAspect=0;image=data:image/png,iVBORw0KGgoAAAANSUhEUgAAAboAAADJCAYAAABVNvdeAAAAAXNSR0IArs4c6QAAAARnQU1BAACxjwv8YQUAAAAJcEhZcwAAFiUAABYlAUlSJPAAADqbSURBVHhe7Z1faBxXlvBPPsLsPMzAwuzDZ0PH08QyZlmaYDoMSO04CCexZ2hpQWYe7EbRgyXjYBQHJL3IQTSxXizBOMLEWPKDI1p6GCxYqZnY8YRmPJH8JEwQy2Iih16nQd6HHRiYecgXBvydc/9UV1Xfqq7q7ipLpfPDl1ZXV92qe6vqnHv+3OtXbt269QIYhmEYJqEIRXfhwgX1lWEYhmGSxf9RnwzDMAyTSFjRMQzDMImGFR3DMAyTaFjRMQzDMImGFR3DMAyTaFjRMQzDMImGFR3DMAyTaFjRMUxcdF+H7Rcv4MUXI2qDAcM+I1/gd9zmdxgeCNe3ab8vQOym63GX7W2sp1scYaYbuke+gG1RV71sb38B132PY5jdCys6htnlzP/HPfF5+t/9FORv4TeH8fPef8C83CJ5+hTu3bunylOAw4fh9K0ND2U7Al9sb8DGrdO421N4qo/DOg4fPg0fquNY3TF7DrUEGBcuXKIu3ddfoJWFRteI+Xcqxn26X6C1RhtfoHqyba+XbrkD6SG5zfNcI1gLsf3ierd9uz4H/oLHoDKz/Yale6T++/Vu529cuOzywhYdw+x6HsHv/4DWGJwGs1HXDb+V5hz8h8OcMzEP0kA8DEf+TWyQjFyBD6mKp5/C+7+exzO6eDQPl9//FOgqDn94RbpHGWaPwIqOYfYAj37/B6FkTo9fb3QderktjXTDv3bR51P49j/FBsHIv58Wn/dmLjcqOc2jyzAjlKSXwmWY3QkrOobZCzz6PQij7vBv4LcuTdf929+gfUZ6rpma64aR658ry+0P8HtLo5mVn4n//JYuAqDrXzlSx+wdWNExzJ5Auy8Pw28cmq6J2/L0LVv25AbcQi339N4F6OmyW27/BkeoCtiG//I05xhm78KKjmH2CNp9efg3v627L5u5La2sy6fiWLLatlEjsj5j9hOs6Bhmr2BwXzZ1W27PwK9//WssXdDVcwHtPppeoObaWfwnSI9kFwT1SG6z6cfsIVjRMcyewe2+VG7Lp5/C1eZZKHj4PFz9lI4/DePX7RrtEfzXNn26MjEb0G7S5rE8htlNsKJjmD2Ew32p3JZP//D7wK7IR5dn0KrD411TBHSSSaBJ6Y5EFobZ/bCiY5i9hE7xP/wbuHKF3JZP4Q+htI6eR+ecIqAVICWvbDusPUX3CHyx8aF0k/pNQWCYXQgrOoaJm65x+OKLL1wl+NJackmww3D6tDDnQltX5iXF5uHXPXpC+Aa8eLEN2/raaN3LjVuoGslL2gO/DuImZZjdBC8BxoVLTEUvy2VELe8VZJkwaxkvn+W4fOvRy325lwHD0t39YgQ127bjQvH7F9dfjLj35cJlj5RXSNFduHAB/2YYhmGY5MGuS4ZhGCbRsKJjGIZhEg0rOoZhGCbRsKJjGIZhEg0rOoZhGCbRsKJjGIZhEo2YXtCXz6uve4cDBw/C850d9Y1hGIZhzLBFxzAMwyQaVnQMwzBMomFFxzAMwyQaVnQMwzBMomFFxzAMwyQaVnQMwzBMomFF1ykqE2LKQ36hqjYwTBPUMzNeUd8jpDJxEM81ATGcimF2HWZF9+MC/Mu3B+H/usq//PcE/OxvLkGu933e+Aq9+pc+edxfYhL+1QXIo+A4MOG6Fr3dXfr6ID+xAJWILq+60CfOs+eUn62/8u6+1JiEtFf/29B9YjyOSl8QYVyB8T61v1t4e91rVRz3wue5GDc9FE3bV4Uq9kveujYq+hlz11eF+eslgGwRPuhVm9zg+WQ7PfrEt63OY3ovFiELJfgdD8SYfYi/RfeTLPzw84Is+PerP5bgZ897gimuv03gfptYRxH++ou02viSyWahUChYJbu5CZulKTjXw5aYF5ul6zAfZ9dsNhfG1YXrUMJHyxfXvdYl/7rhWXTsm8Vr2IRSocdXYTeCiquvB7oLJTw8C1ldH1UnnrGbLoX8FZSxDdn8STC9HWJA0DPVvJ1INquv3V5OOetNn4Q8XUv5K7xShtlf+Cu6f7oMfz1wTZZfrsH//LII/8DNr/7lJvxU7mGGrLznOFqFAh43LI7ZFRy9DDPXrlmlvLMDj0o00kUBMNXTcRdSenhNrN5SHt4lij4kJKyzsAlTHy7EIxxJQOOHvzCuwGdTKP0LRSjSjfPCda91GTFZT4596Z6VxHVACCVfmegBuixARfdoZw3Kur41qm8DlopOxVP9qow9m4X8SfezQQrzIHRjZdliyb+NiqOX9bXbS69LgabhHanp4I+s6Zh9RrgY3U+G4e8/pz9K8NO/iS0GqvCznSl4FV/iv//yGvygtu5W0r3DUC4JsYajeI5h2NmEU/CR0DxT8FksHXMKPiDJ7ne+yn18+lCfnDopv0dCL5wWj8QmbAdRCpUJOEcXlS3CowYFQ6Shd9i+vQp/lOYcvNOg58jSy0Jxo/MDpPTJvBi4lL9iTcfsL0Ino/zjJ/5DzJ8+74Gf/Qjww4E1+PtP1MbdTu9FNXIuwb1OCnRXgopMCPBIPnDtq7/TvpUJGdeieM+849gqVBYmnHEar/gSqvBxXUcIOSdjO2TcxGPVSWGM57tv6iQV10J767RXXKsjVOHpE/rMQlcAXVO5T9eEV3V52KDkDCi3JRx9vXH/NA680CIc6ayOk6Rfh6P4we5LZr8RWtG9+qN30ICST/4ZLb1//GID/iosv72CcusgT76LTgRYSsMgxKWwbHRllQoHhbUgYj7yEhUyJnRuqgSbVowpK+KOFF/yTCIJCwpebdWNxhHHVLEk7KRG61rHtYoX0eaKCho8fCjdkCaLq4FwSlFQ3Ua7Co8IfIA/T76rQKWiSkPSi500dFHfbm6zomP2FeEU3d8mhCKjEfUPbkX2/67DP++25JMQpF+nsW7EeArxCtwTes4kWMmNpWI+azjSVxK+qoVxoQTPcbuMy+B+Kr7UmETSCzM7O/C8BWuh95qqc8qVUBEJaRi5TGdrTEqp3JzyiGsZeHIdxicmnMUrvbZUqFvEB2nwgGehWNtaEAutCtt0H9BWOhywX6vfCc2IBl3IG+HB5lQBzuFAR5SeHmG1jxsHJWk4LB7zJ/CUNR2zj/BXdKS8nqNyo/LfNIVAWh0/HDDE3v7psozf/TiFCm/vvUVa+ESLthxdLlIVdzJl4GWLnxoUk4rxoPpZuua2bXplnKujsRhdZ0zp6b2npGJ1uNjUYKBwOZiiJsu2VHKW+x7XbreI5QY4esoUa9tlCDcnDV7qRSZXYdsjSK5imL2Kv6L7cRN++jdKPMHyYxb+8XO01n655umW/OFASSjAV//yoYjT7UU6Ncr2whSD8nJbeqOsiGyXURhr63QzUCZFMNLDl5VV92EM0w1UMogtKUVMKcDPAiqgQJCl61ICzxsGBQor6xIt4g2yXsn9GzQxSbkDd4mV5EiuiimuyjC7HX9F9/MS/M+RHVXW4H8PDMMPvgkmvagIaQrCJvzsvyf8pyDsKrSFFCLO0iqW+1K7FkNaKi+NXpgRAnQTpm5Gbyo445k6S9FncnWnSIe1XrU7MGCGZhyku0TfMQwjCZ2M0pSfDMNffyEFxT8bVkvZlegsuEDJB+2iY1DKtWily4eR4P5JBdoN26lkBwudnUpK+ju5yYHK6jMmkgjqLtemWZP2eGblpohHek2u7jR16zVYTLL3FFtQDLOb6byiQ/7xi0/l1IK/FeJb/qtVaBmlHkpyIKMqYHp4u9hiUPPCbRk2XV5bEQaro6omVIdyhQalrqSnpui63ej5ZyU4N1FpEPr1BJpTuGcz6vHMcwXZRx/FNvG+3o5A0030AEBkpja2mxR8ZWHBUpratRxNhm8V5j+Uz3PjwEBniAZPnGGYJBCJoiMh9fdf7sJ4nSsTT8w/E0ouC4XiBsxE7RazqMeghL4IJPid1DMhe+TcOdEmWjaqICzExiSWilhxI+w8ugZ6r8GSUAJmxHUJ/VSAbsr+s/U1rfYBWVMCjRltWQnC9pEp6xLLfMCFTS0rzTifzw0OAD7VK+zIduf1OfHeyEzOcj2Gp1yL5hgqKkXrem9KTwM8gd/pbZYilet95q17T0WeS45zijDXMDDwj+0yTFKJSNERvfDXAwUZr9tZgFfV1peKKxNPzD8rluDRxhrMxLxMlxakKHWgeLEVDUvTBTagqOfOiTahykZFUixtGFfVkGnw7aPjZ2bwutZoySu5fFhDX69dC6GwtGVFei5kH5myLrGUTS5XE3Y3bRDdKDIgsd0ic5PWUFXnFLq9CEsbtoGHdss++U4pLTtVuGe7XnnLbPVN3VfH9MIHl4vCVaz3pfsvMkjx/j83TY2ofocqE3eJyQXMMLuFV27duvWiL59XX/cONOeJMukYZi9Cq+ScK8k5knElIdFC0WRVF0o7MXovGOblE6FFxzCMF9IqjnPdyRgzVxlml8GKjmFeBsp9Gdu6k03+WyCGSTKs6IzoBZCDFP4fD5hWUBmsfv9TQweRy6fFmbnKMLsHjtExDMMwiYYtOoZhGCbRCIvuwoUL6ivDMAzDJAuh6H715pvq697hjWPH4JvHj9U3hmEYhjHDrkuGYRgm0bCiYxiGYRINKzqGYRgm0bCiYxiGYRINKzqGYRgm0bCiYxiGYRINK7pOsT4tpjwMLtfUhoiJ+3zM3kc9M1fX1fcIWZ8+hueahhhOxTBN2TeKrrY8lHjFsBfbKAViM+Fbg6UhL8Gpf8My7VNJbRkGaR93GRrCc/v1Vw1qqCAG9TlEGYLB6WVYr9mO0/V7XsM6XBXnW8YavYiyLVj37RWAzBi8n1ObCK+6RDH39/o0tt+23+AQ7uc6bW5wDDKwAvM8EGN2AQlTdEGEiZ2w+zOdJndiQHzefegn2L+GL7fwc+AE2GW0YH0RZug3YuWhQTC7yGTgzMCAKhmArS24O9rvoVhI8fRDfnQFd8tARh9Hh63MwqX+xebnC0OUbVF9mHn3OKTUJjuZjK7HXk7AIfW7RPbHpZUt2NLnxs+trRXsiyFYsr9EqePwHl3Sg6/53WJeOvvGokudvSNWUlk8a3rNk8GebGNuEMZRIPoJ9trXD4Dk/5kTDWoO1h+ilYK2gxD0aEH8qZl26DoPVyYnVaH+moMztH3ltlNQI+vT/VLxDMxB+fEdWNTH3aHjVuHGmFsRtEeUbZF9mIH3jpufjSPndT32knMoxdryx1Z/fIN9IPbBz/IcDVa2YGbRfsEpeOtdoengz6zpmJcMx+iYl4wSiJ6CvQZ/fiCkK7zdaM7Bn0g3DKDAH3wXxXgTy9BIDt4WRuUWVJ+JDZL1abRc8DMzBmWXwJekIHfWtL1VImyL7sPMu/BWyxes70MGxgedNyLlMVhJHad2bMGXX7OmY14uiVF0MtYzCnfpy9Ys5HUMQbtxXMkbQfdvjB3pOErQQHsN1pennXGQpnGhFjG20SP+5drX3l6KwYjrPDYES45jw7RFuYWpjiZNlQIRBfttgwvZ1235UNw/YekpV1kgl5+DGjzbps8MpG3mmbSusO7zZ6FzysyHCNti9WHXa2205RlUhZ4zKcsUHOqiz214Zr+BqdfgCH6w+5J52SRG0eUG5+DGHAXAkcwAjM/Rdyyu0acm7P6toWIasyv1mMZABjIqljLol3DQAWRCgNky0G4ytyvr7ugxYcmIeJToHE2EbdGC3eDmau621JZe3TIMngBBilu54xwC3ENhREh0bUGeVUUfZnwa8+3367C+roo9yUZT+x6+pU8PZXkoLW6gy5I8BHJzFdUkw7w8kuO6TOUgl5MjSPrfm9/K0XcspreSCLt/CxhjGpN3YFHFUrYMsZSO4mkZKDeZcXSegfFVFY/Caz6n9Ev4tuTgyuPH8M1jrKNpn2rB7nZzBXFb1i291Nnz8lr8LIiV0bo1eowU9xYq9Tko37Fbbsp6gS44FPZ52L4NV6enDeW2VBRGomwL6SihteHIa96N2ZodhUujqvT3Y31oqQdWsl54WHoMEzMco4uMupC+MemW0jl4f8wk2DuNR/xLuclMGXiZsU8Miin6tmj3pUOw+7gta8u3664+CxWj8kuAsFujcgMcwTrC6jNPyMJdWTGULWFVmXipbUmdxcEKDUjqpSw8HdiO2X6IY84dw0QNK7rI0DGNtDEzL/WaGOrCltPX03Gs+JfNfenltvQmhrYY3Jfebsu64k2jNWS53LBQu7ASb6VrZSqiNbpK1ii5Xt3xVuVya8USIYvXpThkURmRDUTdlvCkcqj8RCalR9yUYfYYrOiSjuW+1K7FenZfc5dinLjdl0oBuCc4E9rSQ0t1RrvbdEHLiQiUAJHS1qg7FqZdbu6YUwRE3pYWOZQWatZCJZbA9vfGa3kmR0KxxTQZJgys6Jrw7fetCg3/QLyOm/glCHSGFJw7L3xgUoHYs/sCE09bHO5LpQBM7lU9J2x81WQ5PYYbormz8HkA08aKhc06J39bE9kjtmjiaEtn8HsG1OCplZgmw8RAwhRd2Cyv5vu73XFWUkZTtFVgGGHX1uHzWTkCDu4+bIPcCSkAUYEsObL7ghJTW1JnYUQI9gfw+aLXBGft6vMWqoFWW7HQc89ccUw9NwyVzOTyukHZUZbjcpsKJZ62aNdy8EFbDZY+nsX+tw80vDNBdYyxMZaqs1dZATIvl4QpurpAvjREmW5DTdLeffa3JsGOwhviN7neYX4WX37aHoDcpMpInO2X881E9t0QvNEv5++ZEz+iQCc2zMKMK7svKOHbsq7mGzafR2dHCnZK6EAxa8oK1ctk+bVBKfag89DMygQt4U/k9AzKSMyL9S3lc3AV2y+zHB+0l00YV1uUG7IxhrqObaG1KvX9VPcU2yauKzMG07ZVduoWIz0Dui/onRCNMCQq+cd2GSYuEue6FAJZvNUy061Z0MB7fxJ0c6js8Efxm7SEbqzegRE5QA4Apdivwrieb6ay72hdwfG51ViX6tICEKVOw8oWwQjfFpmiHxIt2BGT29KayO3revWw0rywBjWuKRIiI3EVboisxi18DORzcBfblRkYw2ehvYFKbG3RcdqG+FoO3j8/JmJv8n7KeyqyOfGefuOapkD7X1nFdwL7Q78Td8UaoGNQfjyJv7pQc+9M95Fh4uSVW7duvfjVm2+qr3sHmjtEMQyGYZpDq+RcWpFzJONKQqL/TYOsvTNzj+FKK2MrhukQnIzCMPsAuUpOe3Mdw+GTNcswMcOKjmH2A8p9GWiqQifwyZplmLhhRbcr0AsgByntTwhm9iNqmknAqQrtsr5IWZsDMJLg/xaL2TtwjI5hGIZJNGzRMQzDMIlGWHQXLlxQXxmGYRgmWQhF15fPq697hwMHD8LznR31jWEYhmHMsOuSYRiGSTSs6BiGYZhEw4qOYRiGSTSs6BiGYZhEw4qOYRiGSTSs6BiGYZhEw4pur1OZEFMt8gtVtYFhmqCemfGK+h4hlYmDeK4JiOFUDOMJK7oEUl3o23PKTwrEZsK3CvN9XoJT/4ZlwqeS6gLkaR936evDc/v1VxWqqCDy+hyi9EF+YgEqVdtxun7Pa6jAuDjfAtboRZRtwbqvlwCyRfigV20yQW1V9Zmfoyrugu23nTffh/fFtWvvxSJkoQS/44EY8xJhRReYIAKKaZXeUwXxWbrvJ9i/gvImfhZOQYOMrtyEKfqNKN1vbkFks1AoFFTJAmxuQqnQ46FYSPH0QHehhLtlIauPo8NKU3Cu52ZnLZYo26L6MJs/CWm1qRGpDPUlNCL741xpEzb1ufFzc7OEfdEH8/YXJH0S8nRJ5a/4vWFeGqzoEkh6eE2sGlMe9hZlu47ei1BEgegn2KtflYXwLZxqNEUq99FKQdtBCHq0IO410w5HL8PMtWuqUH+VQKja0nWnoEYqEz1S8aCie7SzBmV93BodtwFLxVM+SiM8UbZF9mEW8id91NzCh9jeLBSLcvDhRv6Of2B/PMc+0H3xqET7b8LUTfsFp+Edqengj6zpmJcEKzpml6AEoqdgr8IfpTkHpxvNObhHuqGAAv9iHsU41uJnGRrphdNCrm/Ctl0gVybQcsHPbBEeXes1KLQ09A6btrdKhG3RfZjNwzueF1yBz0iL4flHXlebHOj7gIrwovNGpD0GK+mT1I5NKH/Fmo55OSRM0ZnjKOOm+IBnQF7HR+pxIBk/KqAIRjanoFvX7XANVaGyUI9riOIVK7Gdm+Iccv8+mG+4lhZR9evYim/8y7VvsGsL0VbsReHypTpMP9uQApEMEYN72NdteV/cG2HpKVdZIJefgyo8fUKfWeiyKQFpXZHcH+6gMvMhwrZYfXj0dc+2VCboOS/AEip1M1XYFnrOpCzTcPgofT6Bp/YbmH4daDO7L5mXRaIUHblUKI6CYgKKpRIslYpQyG5CaaqnrcSM3ouyLpI5kNV1Y7FGtCpmMVWqxywKWciqWEneI6GgVDgorAUR8xGVR4NMCCB52Xgd2k3mdmV5X1trbQ2EFuwGN1dzt6W29OqWYfAECFLcyh3nEOAeCiNComsLUt0WfZj1akx1AX5H97x4sXEwoal+h2oM8VCW6S5xA12WZBrk5m28OoaJn0QpuvTJy/BoYwfKa9dgpLcXenuHYWZNxivaGk2mqS45KgXogndE3VjUm26MWVxbg7KKlWwaYiWSLBQ3VMwHjxvxlC5t4mkZKDeZcXRuvrbwbe2FmZ0deL6DdXjI1zpasLvdXEHclnVLLz18ufk9LxXq1uhBUtybqNRL8GjNbrkp6wXv/OGm1+7iyXUYn5gwlOtSURiJsi2ko+SZj75uagwOYD6cwsFLEeY6Htv1sPQYJiaS5bpEhZRueEejHk3WhXCju6cXPhBBC3N8Ilv8NIDw7wQe8S/lJjNl4JmvrfW2BkW7Lx2C3cdtWV24LtrgtPRUjMovAcJujcoNcBTr6NjtIAsXrf7GsimsKhMvtS0q0zM2Fy3DxEgCk1EoTrcA89YI+qYUkpGhYxZdRgGRfl3agZtOX07sWPEvm/vSy23pTQxtNbgvvd2WdcXbhdZQpVIv1C6sxFvpWpmKaI1ukDVKrlf3/Dw1SGrFEiGLV1iy7iIt30aibosfFRjH66VrnnF3McMkgGQpugolSNB8pymYso2iSXzseyz3pXYt1rP74rEqg+J2XyoFYJrgrC09tIOm0KI5Zy9oORGBXNZpbY26Y2Ha5eaOOUVA5G3xRluS2Sf3bS5WLNelq3OzfFN8FwlJKrEEnnxnvJaqHAnFFtNkmCAkSNFV1STXLA5MN2wj6A2Z8uzBk+/alWD+rlEdF/FMAIiNNIxcFj4wqUDs2X2BiaetDvelUgAm96qeE1bcsFtM9bIkmjsFnwUwbaxY2JRz8rc1kd2UCdpB4mhLM2jCtx4cirIpFSyo7WXxrvg9A2rw1EpMk2EiJFGKTqc9f6CzRAS4Xf1lwu1ms5ItGvB6wfWo3zCCrqo5SSjAgrsHI6T3lBSAqEDmHdl9QYmprelh+EheKHx202uCs3b1eQvVQKutWOi5Z644pp4bhkpmdKFiEO6U5bgQSqE0Ek9btGvZPbjTCww0FDEBHO9oUQ4c5QIE3pmg2jJsjKXq7FVWgMzLIUGKTgftUSDR+oOVCsyLuV4FHJnKPRxYk1sLcKBPumpo/l33FL7YtL2BupA/J/andQ6lFOm9pjIOp3rkfDLh+umDAz1y7l18SSfNqPfRlDTnXAKpOeHbivdBzEtsPo/OjhTslNCBN8+UFaqXyfJrg1LsjdmmZszKBC3hT+X0jM2pAnRjO/KizViw/TLLsdxeNmFcbUl3yXa06YetW4z0DOi+oHdHNMKQqOQf22WYqElUjK732gYUC1m5/mChAFNTT+BoaUO6fRogAVZCZYevvnLNiJd0Yw0+kgPfBoSQF5KC9sc313LRUQq9PLeYTyZcP2iHiDl3G7tqKS4tAFHqNKxsEYzwbRVCLixasCMmt6U1kdvX9ephpXlhDX5cUyTQwizTUl8iq3ETb798XoQOLhTxmWlvIBNbW3Sc1iO+Fhx8Bjbw3aGXQbs7xRqgRXi0cw1/daHm3vmvr8kw0fHKrVu3XvTl8+rr3oHmDJE7hWGY4NAqOedKco5kXF4G+t80yNorlHY4q5N5KSQr65JhGF/kKjntzXUMh0/WLMPEBCs6htlPKPdloKkKncAna5Zh4oIV3a5CL4AcpISZEMwwGjXNJOBUhXap3JxC+7EAH+2l/zKKSRwco2MYhmESDVt0DMMwTKIRFt2FCxfUV4ZhGIZJFkLR/erNN9XXvcMbx47BN48fq28MwzAMY4ZdlwzDMEyiYUXHMAzDJBpWdAzDMEyiYUXHMAzDJBpWdAzDMEyiYUXHMAzDJBpWdPuV9WkxRWNwuaY2MEwT1DNzdV19j5D16WN4rmmI4VTMPoAVHWNRWx7ac8pPCsRmwrcGS0NeglP/hmXap5LaMgzSPu4yNITn9uuvGtRQQQzqc4gyBIPTy7Besx2n6/e8hnW4Ks63jDV6EWVbsO7bKwCZMXg/pzYpajW8Njy2XhfWs7zucZ01vGfYftt5B4fwvrh2zg2OQQZWYJ4HYkwHYEXH7GlyJwbE592HfoL9a/hyCz8HToBLRqP+WIQZ+o1Yedjcgshk4MzAgCoZgK0tuDva76FYSPH0Q350BXfLQEYfR4etzMKl/sXOWixRtkX1Yebd45BSmwgaHOX7R+Eu/abrAaxndhTyDfXI/ri0sgVb+tz4ubW1gn0xBEt2nZY6Du/RJT342kNhMkxwWNExFqmzd8RqM4tn7aJsl5MbhHGSrT6Cvfb1AxS9AGdONKg5WH+IVgraDlJAr8CfmmmHrvNwZXJSFeqvOThD21duOwU1sj7dLxXPwByUH9+BRX3cHTpuFW6MnYBDcteOEGVbZB9m4L3jjc9GZszePqxnlawxxFVPbfljqz++wT7QfVGeo8HKFsws2i84BW+9KzQd/Jk1HdMmrOiYPY4SiJ6CvQZ/fiCkK7zdaM7Bn0g3DKDAH3xXCGdfy9BIDt4WRuUWVJ+JDZL1abRc8DMzBuXJnMMKkqQgd9a0vVUibIvuw8y78JbrgmlwtOhuh7LGnPXo+5CB8UHnjUh5DFZSx6kdW/Dl16zpmPZInqKrLcNVRzzEVhyulGCxAhJY9BvFgESsxdqf4hBeL2D4uml/Xe+SQz5hXcv282JpGhdqEXU9OkbnG/9y7dv5tqiYFNXRpKlSIKJgv22IX/m6LR/CXfwQlp4WzkFcfg5q8GybPjOQtpln0rrCus+fhc4pMx8ibIvVh12vhWyLvZ5nUBV6rlFZ4gXDoS763IZn9huYeg2O4Ae7L5l2SZaiI2HbP4sv/ACMz83BjbEBIQDphTszht+tkaSOFeCfA2NwQ+0LpliB4u7tIRFrgYyMQ9BI8+5svyFxo4W6R4+J/UWMQ16wQtU1u1KPadC5VSxl0C/hoAPIhACzZaDdZG5X1ktpixbsBjdXc7eltvTqlmHwBAhS3Mod5xDgHgojQqJrC/KsKvowE7gxSqlBFxzS9dS+h2/p00NZHkqLG+iyJA+B3FzFGhmmdRKl6PTLfuPOJJzL5SB3dhIWRbxgC1+yQ5BTb5iOFZyZo7jCWci59nXGChS4//jqY1jEuikOIfcl2eocbbZUN/4yvqpiHHfu4LXLrcaYBp1bxVK2DLGUjuJpGSg3mXF03qm25ODK48fwzWOswyQZHWjB7nZzBXFb1i291Nnz8lr8LIiV0bo1eowU9xYq9Tko37FbbgZBH5Tt23B1etpQbktFYSTKtmAvfi+0Nhx5LVhjasu3hXVptKJD4WHpMUxIEqTo1Cg6k3YG+LX7wxoq6ngDCr9DNajVbAVwX5KX2983CIfM2CdOgWtZEfbRZofqFtSF9I1Jt7jIwftjJsHeaTziX8pN5s7AI15WW7T70iHYfdyWWhg7LT0Vo/JLgLBbo3IDHME6gqmAAJCFu7JiKFs01jKyq9pSW4ZJVJjme80wL4cEKTo1+nO7ObRQttwuarQtXIn9kHcUmSbdOp2sW8c0XIpbkXpNDHVtCjwarPiXzX3p5bb0Joa2GNyX3m7LuuJNozW0vl4v1C6sxFvpWpmKaI2ukjVKrlf3/DzlcmvFEiGLV1iy7qIyIhuIui1hWIer/bNYC1n1kw2DC4Z5WSTKdSnnVKGSGZqGJXrZKfGB4momoZwZgxurq1A2FZfrJjRR1h03lvtSuxbr2X3NXYpx4nZfauu6cYKzZenhszIzOgqX7AUtJyJQAkRKW6PuWJh2ubljThEQeVuCQjFYHMzhX+S2b3g2lGfF5NEgnsmRUGwxTWZ/kSjXpVy5YQBHpuqln5Xfb6zaX7x6gBtSKfxnKHLHFuhk3f6BeB03CZ4g0CopOHde+MCkArFn9wUmnrY43JdKAZjcq3pOGMVcTdbTDdHcWfg8gGljxcJmnZO/rYnspkzQDhJHW5ojE41kbPoxXDE+Gn7PgBo8tRLTZJgAJEjRSfdYpusEXLlTf9EpeUQnoUiaZKSJmJr6OzSdrFtbBYa6auvwuYiDhHEftkHuhBSAqECWHNl9QYmpLamzMCIE+wP4fNFrgrN29XkL1UCrrVjouWeuOKaeG4ZKZtK4HBZlOS6HVChu4mmLdi1/+73p4bUruVUPJUd4vxveySs6e5UVINMeCVJ0csS45cgkwzI0JOawLdnmatVHrpTWvizdnOv4SfO/+vthsp2kiA7WnZtUGYlYl5hvJrLvqB7pIjInfkSBTmyYhRmh58Jn04VvyzoKULqHzefR2ZGCnRI6UPKaskL1Mll+bVCKPeg8NLMyQUv4E5WZS8thYTsGdQYltl9mOT5oL5swrrYcSst2GPyw1uovGTzu4aK6r7aCSl5jfzfewHdS9sUxyHsmr/jHdhkmKIlKRpEjRjVnjuavYRnvwtHoFrky+6E+8ZlS11fhxgDuv4LCW8Q08HO7C8ZxVNreElidrFvWNa7nm6nsuwwKlfavMxxaAFL/ule2CEb4tgghFxYt2BGT21Im0jRzvXpYaV5YK3u4pkighbmongWaWrKlMyixXRmaY7na3kAltrboOG1DfE1bXAi+Y/UMUVt5YD8Gn4FVfCfp3dD7izVAx6D82JC8oubeme4jw4ThlVu3br341Ztvqq97B7LWyDVpQZPFR1fQMjAITVqtnbLBKKONU54ZJjS0Ss6lFTlHMh4vAr22Q8La8477MUwwEmPR+U5qDb2yA8MwduQqOe3NdQyHT9Ysw4QkMYrOmu81SrGQZWsuEcXG5BSDARiJ0dXHMIlCuS8DTVXoBD5ZswwTluS4Lgn6DyA/vg13t+zBHYoBnIfpyU6uFL/boAWQZVJHcwbghikewjDNUOGBOFyJ0lXKzyrTGZKl6BiGYRjGRYKyLhmGYRimEWHRXbhwQX1lGIZhmGQhFF1fPq++7h0OHDwIz3d21DeGYRiGMcOuS4ZhGCbRsKJjGIZhEg0rOoZhGCbRsKJjGIZhEg0rOoZhGCbRsKJjGIZhEg0rugaqMN93EA4cnICK2pJoKhNiqkZ+oao2MEwT1DMzHsMLUpnYR+8iExms6AJSXejbNwphL7ZVCsRmwtdvEKN/wzLhU0l1AfK0j7v09eG5/fqrClVUEHl9DlH6ID+xAJWq7Thdv+c1VGBcnG8Ba/QiyrZg3ddLANkifNCrNimqVbw2PLZeF9azUPG4zireM2y/7bz5Prwvrp17LxYhCyX4HQ/EmDZgRdcWQYQOEwe9pwris3TfT7B/BeVN/CycApeMxlt5E6boN6J0v7kFkc1CoVBQJQuwuQmlQo+HYiHF0wPdhRLuloWsPo4OK03BuZ6bnbVYomyL6sNs/iSk1SaCBkfdPQUo0W+6HsB6pgrQ3VCP7I9zuPOmPjd+bm6WsC/6YN7+MqVPQp4uqfwVv2NMy7CiC0h6eE2sxFIetr/eyWRPtrX3IhRJtvoI9upXZRS9pOca1BxU7qOVgraDFNAluNdMOxy9DDPXrqlC/VUCoWpL152CGqlM9EjFg4ru0c4alPVxa3TcBiwVTzmURrtE2RbZh1nIn2y84mzR3j6sZ4OsMcRVT3XhQ6s/nmMf6L54VKKzbsLUTfsFp+Edqengj6zpmBZhRcckBCUQPQV7Ff4ozTk43WjOwT3SDQUU+BfzQjj7WoZGeuG00A6bsG0XyJUJtFzwM1uER9d6DQotDb3Dpu2tEmFbdB9m8/CO64JpcFR2t0NZY8569H3IQvGi80akPQYr6ZPUjk0of8WajmmNBCq6YL5/QbUC87iv3u+A136EK2lDxoQKKFaRzSno1nU43DR4LQsTzjiIV/zDFuCn65f798G8VZ05xjMeRezC2FaP+Jdr3+btIEL0C4o84R6mOpo0VQpEMiAMrmRft+V9cR+FpaeFcxCXn4MqPH1Cn1noskl7aV2R3hnuoDLzIcK2WH149PWQbbHXU4VtoecalSVeMBw+Sp9P4Kn9BqZfB9rM7kumVRKm6LTvH/8sFGGpVIKlIg5NTb5/EqA9BZiSQQURJ6Cg97ke5WZqQu9FrLukXDN4fJHORcUapaprmSrV4xCFLGRV/CPvkSRQKhwU1y/iHKJyCbl7KMaDDVPnKuLvFAPBuiIO1MuEAJKXjdes3WRuV5ZXO1rtl0BowW5wczV3W2pLr24ZBk+AIMWt3HEOAe6hMCIkurYg1W3Rh9nAjVFKDdXUYX1I9TtUY4iHskx3iRvosiTTIDdvY40ME55EKTrt+y+UKE4wDL29vdA7fA3KIlbg9P1XF66LkW+2uAHP12R8ory2A4+E7yQAaay7V440AbrgHToXFfX2GuMQ1/C6VPxj0xD/kGShuKHiHHjciJLL6ZOX4dHGDl7jNdxG5xrG31VdUY90PS0D5SYzjs7N7QjfL70ws7MDz3ewjqbyVQt2t5sriNuybumlhy8379dSoW6NHiTFvYlKvQSP1uyWm0HQB+XJdRifmDCU61JRGImyLdia7+SZj74erDH6HbNfT2t4WHoME5AEKTodP0Bhlq5CtWorgAqJ5N+T79TLXhd8H7kSLtLDn8o4QVvU61+65n7Fe+EDcQJzzCFb/NQs0FGxphu2xzXS9Yh/KTeZOwOPMLej9X4JinZfOgS7j9tSC2OnpadiVH4JEHZrVG6Ao1iH6da1BFm4aLk3lk3sITO7qi3VBRiVIxrDvWaYeEmUohOjZ+Gm7IFuR5Fpz3V0nKCrc4LJgX/96delHbjp9M8EgOJ0CzBvje5vSgEeA1b8y+a+9HJbehNVv9gwuC+93ZZ1xduF1lClUi/ULqzEW+lamYpojW6QNUquV/f8PDUQacUSIYtXWLLuojIiG4i6LWGgsMAU1kJW/bWGwQXDxE3yklGyRVja2IBHpuJyxewpKBHlIM3FmoIp2wg/Jj1XVyCWa7Ge3dfcpRgnbvelUgCGCc6WpYd20BRaNOfsRY2MArmF0dqW1qg7FqZdbu6YUwRE3pagUAxWJmlRCKHh2VCJJXXvipOqHAnFFtNk9gcJUnR1Nx75+NKmIndEonb5+devYx1hgvq0GgWNkAulDdvofqMDbtagpGHksvCBSQViz+4LTKf7xYzDfakUgMm9queEFTfsFlO9LInmTsFnAUwbKxY25Zz8bU1kN2WCdpA42tIcmWhEHstCaQdmjI+G3zOgBk+txDQZxodEKTrfDDMRr1N/475ypO3el6YmqGSJQHi9tF71I9UKfCZO0IrLL49Wif0Y3K7+ioXeU1IAogKZd2T3BaXT/eJBehg+khcKn930muCsXX3eQjXQaisWeu6ZK46p54ahkhk1LodFWY4LIRWKm3jaol3LT75rbAVdQ13JbXgoOcL7PfVOXtHZq6wAmdZIlOuyPhKlNPUFmBcxCopp9cGBnh4YtcUodMq82LdPxrzINShS4umHQNQF9zlRB61dKCVD7zWVRYj1izliIqZG1yHdOp5JJ0Z0QgEKS1obEds1L+ahuWOPUVO/jimh58Jn04XvF2yrmDvYfB6dHSnYKaEDO8iUFaqXyfJrg1LsjdmmZszKBC3hT/WzVoBubEdex1jFupCU5VhuL5swrraku2Q7DH5Ya/WXLB53/6a6r7aCSl5jf09p7qrsi4PQLRthSF6JOqbOJJ2ExegoFX0DlmjiVgmFsYhR4OeTo1DEUaZjSSsc9YvAO+5Ka+xRvEvMvdtYg4/kwDUQQnCLt19mxNWDC/JaipTJZmXQoW0h5ty5riUAvddkXWJtRGzX1NQTOIr1CJdUjGgBiFKnYWWLYITvFyHkwqIFO2JyW1oTuX1drx5WmhfWyh6uKRL0rKnnkqa5bKr4qtDB4pkLM+hpJLa26DhtQ3xNW1yIepcaStl+DD4D+O7RM2DtL9YALcKjHUPyipp7Z7qPDBOEV27duvWiL59XX/cONOeHYg8Mw8QHrZJzriTnSMaVhCQWjEZrzzvuxzD+JC/rkmGYyJAu//bmOobDJ2uWYQLCio5hmOAo92WgqQqdwCdrlmGCwoouUegFkIOUdiYEM/sXNc0k4FSFdqncpInnjSsYMUwYOEbHMAzDJBq26BiGYZhEIyy6CxcuqK8MwzAMkyyEovvVm2+qr3uHN44dg28eP1bfGIZhGMYMuy4ZhmGYRMOKjmEYhkk0rOgYhmGYRMOKjmEYhkk0rOgYhmGYRMOKjmEYhkk0+0TR1WBp6Bi8cWwa1tWWxLM+LaZgDC7X1IYWaLuOKPs95nvaif5k9hfqmbkawwO6Pr3P5FtI9rVFV1seSoTw6kQ7gtaRlD7rBHuxL6RAbCZ8/QYR+jcs0z6V1JZhkPZxl6EhPLdff9WghgpiUJ9DlCEYnF6G9ZrtOF2/5zWsw1VxvmWs0Yso24J1314ByIzB+zm1yQ3We9VvsOZ1XlGcx+QGxyADKzDP76URdl0yzD4id2JAfN596CfYv4Yvt/Bz4AQ0yOj1RZih34iVh80tiEwGzgwMqJIB2NqCu6P9HoqFFE8/5EdXcLcMZPRxdNjKLFzqX2x+vjBE2RbVh5l3j0NKbbIjBkn9s3BXn9+HTEaf015OwCH1uyB1HN6jS3rwtY9i37/sa0WXOntHrK6yeNb0KO4dOtGOoHUkpc86wZ7si9wgjKNA9BPsta8fAMnfMycaTZH1h2iloO0gBD1aEH9qph26zsOVyUlVqL/m4AxtX7kNSy6JvD7dLxXPwByUH9+BRX3cHTpuFW6MuYR7m0TZFtmHGXjvuPvZkFZkfhZ/HZuT96IJR87rc9pLzqVAU/DWu0LTwZ9Z0zXAFh3D7CuUQPQU7DX48wOhbeDtRnMO/kS6YQAF/uC7KMabWIZGcvC2MCq3oPpMbJCsT8MloXfGoNwgxIkU5M6atrdKhG3RfZh5F95q0HNk6WVgfJUGSJ1U29hDx6kdW/Dl16zp3CRP0dXWYWlaxk5EGZoGTze6McGgBuvL0w7f+ODQsnP0K44bEqM4dzxhcHrdw3XQWK+nj19dF8VRRP3WMbi/yQdvbEcd5zVSvMNwjU3qsPDaL0y/49lNcRhj24hQdRPY17i/8x42O6YFXH3hG/9y95v6TvvStdLf4plyHBvimcEnVMSk1HPphxSIKNhvG+JXvm7Lh3AXP4Slp1xlgVx+DmrwbJs+M5C2yXlpXWHd589C55SZDxG2xerDrtca25I6C4torZ6LopGp1+AIfrD7spGEKTp82ftHYWaFRlPSl00B2kv9yiUSAHKfXJrFl25gDG7MzcGNMRqyPYBnhifny4+HRDyBRr/yXPiQrYxCvsFnL2MPVO+W5efPQEb5+EnxmLh7W9Uv2oL742jt7izu30wZ2djC/Z3XuOVxje0Qrt9ryx9b1zROfTw3BmcyXm0Le09VX4vqbfdwi45prgTaQSYEmC0D7SZzu7Lujh4T1yriUXSwRWvPTCC0YDe4uZq7LbWlV7cMgydAkOL+WN43h7XjoTAiJLq2IM+qog8zHWrMt9+vw/q6KvaEnAYOQVrc1yo4DEwmWYqutnxbjNIyY6vwzR3py1688xjKYw4J4oN64TJjMD15FnK5HOTOUh2mERgqDHyahQtCn8vDZ0+CXbwQA3N4XXeUj/2Otf+WwccvcNSP+69KQRpuxKbcJE2usR3C9nvq+Hkoq2s6R32cOwtX7qi+cLUtbN26r8/MUYzHdg9F323BzGInFbwLT8tAuclMrixxf1Q8ip4zpV/CPzM5uPL4MXwTyFrQgt3t5gritqxbeqmz5433zAEOqixr9Bgp7i1U6nNQvmO33J5BlU4LXXCo6bW72L4NV6enDeU2fKt2aSTKtmAvfi+0Nhx5LWxjzGzNjsKlUVVwgOft/UjBoS763DYOzPczCVJ09Zd0xJUckDr7SaCgrwWNdAP4uTJjn7iESg7eFwLYLkDq13Vj0i09TPvXaajfGokHH7EFu8Z2aKHfUzlIOXdFTKPRsHWr/dHye/tQDWo4+rUKvAZHaP/t7/HvqPCIfyk3WcaQgdd4f4jWn5mgaPelQ7D7uC31gMNp6akYlV8ChN0alRvgCNbR0ORWIQt3ZcVQcCCqdnGza9viRrg5afBSL+U5OWAj70cc8/OSQoIUnRoVZtJtZGal4Nwn0o02Q2nDFA9Z9oq5mUm9JoZUNvyvS++/5YxmR0rjNbZDq/1OcbplWLJG4ItSyDoIW7faX7gp+yHvKKOBUrnbxYp/2dyXXm5Lb2J4ZgzuS2+3ZV3xptEastxoWKhdWIm30rUyFckjQdYouV6dc8CsQU4rlghZvC5lIIvyXDQQdVuiJZVD5TcnMmDMMVbGSPKSUdoFR1FXyDVGcSN6kGdHIR8gwM+EgBJRjlHscBZmbKPwjumhzBjcWF2Fsqm43Ewdx3JfatdiPbuvuUsxTtzuS20NGyY4a0sPLdUZ7ULThWKnSCB3Olry0hp1x8K0y82dvRgBkbclBg6lhUpmgpMgRdfZQCyNnKTCE/6MwLGdRv+8/3Xp/TsVuA5CZ2MIYfu9JlaMoDlGZ+ZWbSPwVYMrMmzd9f3JN5oyFbljhKTg3Hn5zAgFYs/uC0w8z4zDfakUgMm9queEUazXaTXJckM0dxY+D/CKWLGwWefkb2sie8RWShxtYXYfCVJ0elToHmFRqrkK7LdAKnfCwwVCD/jHLktvHT6fpRPZs8e8rgup1fcP7tYKR7BrbIew/a7dcu+i5WBvM25Xf9UJW3eT7DkRr1N/R4l6ZkiBLDmy+4IS0zOTOgsjQrA/gM8XvSc4S1efd6JIoNVWLPTcM1ccU09kRyUzaQwXUJaja5pPaOJpi3Ytf/t9FA8bDhQ/nsV7Ra+Qe1Cis1dbSOpJOIlyXer0bkqpp3lTFPshF5lI36YfmiHWlhuS6+oJvz2tRTfqMyJHS69fztG6KuZtyX3dCQa5SZUph9cl4n4iJkVLAJn37xwZbLf9Gqk/On/OcP2ug/4o0FQ/L4m5YuYYWth7Wh9lUwr+Miyp+yjm4fX3w2QbCRzBqbdxRug5w5y0JoR/ZrAfxbzEcG52KdgpoQM735QVqpfJ8muDHgwGnIdmViYyPi7vtQwXDIo2Y8H2yyxH8zSfwMTVFuVaNMdQaZCm2mXFpbdhXm+zlPy6WAdz0Lr3VGQ/iDZQZnjDijxhY9r7h2TF6ChLiYLE+JRtbcm4j5hLtXoHRuQgy5/UcTnCpXX1hN9+FoUKzfVahSuGN4NS3stqjpbM8pLuuMYloSj1exXG9TwolRVGa9hR3VEuIfXeJ5SKr69RuQzxujt6zpD9npuUfSHWL8R+npndhiPYD8Jt5Cb0PZV9fQPrp/so4zD4ud0VeV/b0QIQnxIYHwyr5ojwz4wQcmGxeSxMbktrIrev69XDSvPCWobMNUWC7rW6d3K+p7zfNADKiHve3uAstrboOK0xw/cZ/Em3C4u8Zba2zj5U7uocvH9+TEwA1/vKwYhy+ZtizbXvxZQK033c77xy69atF7968031de9Ac1nIp/5SoFUtRleEootLcDIMs3egVXIurcg5ktF4axqhhaJpDc0zc4+NA/P9DGddMgzDdBjpcm9vrmM4fLJmGVZ0DMMwHUe5LwNNVegEPlmzDCs6Zl+iF0AOUuKdEMwkBTXNJOBUhXZZX6RMzMYVhBgC4P8DKjtLKATLMo8AAAAASUVORK5CYII=;" vertex="1" parent="1">
          <mxGeometry x="-404" y="-17" width="323.25" height="147" as="geometry" />
        </mxCell>
        <mxCell id="lOKb49YVc73qP3Tbzx3c-68" value="" style="shape=image;verticalLabelPosition=bottom;labelBackgroundColor=default;verticalAlign=top;aspect=fixed;imageAspect=0;image=data:image/png,iVBORw0KGgoAAAANSUhEUgAAAbkAAADNCAYAAAAlkA5LAAAAAXNSR0IArs4c6QAAAARnQU1BAACxjwv8YQUAAAAJcEhZcwAAFiUAABYlAUlSJPAAAEL9SURBVHhe7Z1faBzZlfDPfIRsHhJYyD58Y+hxmrGM2V2aYHoISPI4NJ4Ze5aWAjb7YDUaPVgyHoysAUkv8iCaWC+WILYwMZL84BEtPQQLIjUZe5xBjDOSnoQZxO5iRja9ngZ7HzYQSB7yhYC/c+6f6vpzq7qqu7otlc4PX1oq3b51762qc+75c8tvzM3NvRoaGoL9xn/+53/Cv/zLv6jfGIZhGMbL/1GfDMMwDJM4hCV38eJF9SvDMAzDJAe25BiGYZjEwkqOYRiGSSys5BiGYZjEwkqOYRiGSSys5Bhmv9N5A3ZfvYJXu5/D/tsMxDCthZUcw+xrhuDzzStw5OlN6Or4EObVUYZhJKzkGGbfggpudw467pOCG4EtdZRhmBqs5Bhm3zIPH3a8AR0fsoJjGD9YyTHJRceqfMrujU5VEbHXDRXbIitKt+Wq73PeXWz3xpDtnIRfH3d34XN3XSLKmIhO6udurY6j3U64YY0huFjt6vN/7pqhOOfPohO7/znOm64ni3EeGcYHVnJM8nn6FO7fv+8pv/svH/vnyBkYcysLF503xuDMEfWLH/bz4s9HsN0rc5teRUQ4+vgU+3AEzmBdjzLRhBkTKYjNOeznEXiq/v5UtSv7sAX/9TtXG3hq4ulT53HfuTIRy/yREtyEzbkzOBVPrf7b55HmhlUdUxd6rRd+cOGSvNJ54xVaF2goDJn/bi9W3c9ffU6fuzdeoQA114UhWefzG6/QEqIfXqEqqv3d77z6uL2+bx/VOfCvqC9qxyOMaUgOxPl9LJ3YaVRyjmP2v8nmvX8Tpd7Y4pg/6FTHsRk8j6edzqHa333GwYWLLmzJMYyD38K1m2RJXYGrPkYUDP0CzuDH/d/+Rv4elq0RmL5PP5yBX/i1bTEPvxV1j8DRfxUHItIJ/9xBn7vgNsK2RjqgY6RVUbwY5m/oKlwhK+/pTfjow3lvvHFrHkY+uglkdB65cjWEa5Q5yLCSYxgXW7/5nRCgZ4yaqBNujAkRDb9tIF//P75V/sC6aCX1FL79D3GgQcIo1Hhpdv6GfkF/xxrTAQk1kRYMzEGGlRzDuNn6DfxOSmmvldD57/BvaGU8vXmtoT1p/3q0XiCP6IShG58pa+Z38JuGjK4tGJFaAM7MvYLddsavmpq/8MpdLxg6/pkjc4w/rOSY5NMxBp9//rmzBGbnaQXhTaAYunoFjqAA/l0jmmfoc5gTRorBijkzZ8sg3IQ51HBP71/03/8WZkzzH0LXxfvCqjqC7W9SZuLnN6D1iYnNzN+/glwHeN2sDNMIrOSY5EMZhWfOOMsv6gS65n+Lqgi/+m//brOAhkB40u5PQ6iQll0RURq80HBP4f5Fw5tJrGzJp0IpUb1d1IS+pwk5pi1UdB1vdMHFm1rZXYG5TdpGIP/eMuKYP4aJAVZyTPJBi+iNN95wlg/rORtV4octgUKkvePn/bDBOLsiEmnwN+FiVwcYT707DR9++CGWDujouogKglL9A/abRRrTFsyPaGUnVF1w27HQ6Pz9B0gvZAeE9ULussnHBMBKjmF8mL8mM/hkAkUn/LsMJsG1kDrOqYhQeX04AvNh5PHWvMxQNLj7moOUXQdcJOWDbbc6YaOx+duC/9qlz3pZpao9PENziTlM0mElxzB+2BMoVFr709/9xt+FGCNbI9PS3befU+QbnD+dUGLOzlSoBJbGE3OYgwIrOYbxZQt+I6U0zIl42n2YblswSe+Ta9Diotds0eu13IZgp4qL4VjCel0bp7H50wqeknGMb4ehV5XR/7yAPwZuM2AYhJUck3xMmYhYwrz/0BK4xP3f+qS9t4Z5qeXMFk2YMR1B5bL5SrxLUv59F17Ra77wT41ugYhKY/M3Dx926c3em/Dq1S7s6jFSAo81hi5zfJNh7PBrvbgktliv0TLjeCVUwOuy5Oux6E/O42hSRHutl6kE1tXt217NFWlMQ69uoFaw10fr7tVQp/+rsJp/rVcM86cL9nOI+m8fAJ5l9/MbOAZDfS5cDOUNUnIXL17EnxmGYRgmWbC7kmEYhkksrOQYhmGYxMJKjmEYhkksrOQYhmGYxMJKjmEYhkksrOQYhmGYxCK2EPTk8+rX/cObhw7Byxcv1G8MwzAM44UtOYZhGCaxsJJjGIZhEgsrOYZhGCaxsJJjGIZhEgsrOYZhGCaxsJJjGIZhEgsrOYZh9h7r42Kb0Ni6+r2FrI8fwnONQxtOxbwGzErubwvwT98egv/rKv/03+Pwwz9XVCWFrvvSe4t874898nt/dH2nVVQWII8Pxpvjrr7o4+7S0wP58QVYb1P3mBqVhR5xDfIL+2zybfdS3n2faUwC2u/etKHnxPg9Kj1hBPE6jPWo+m7B7fccqOK4FgHPzJjpgak7vgpUcF7yVt+o6OfP3V4F5m+UALJF+DinDrnB88lx+sxJ4Fid38ldKkIWSvCr/XYvMqEItuS+n4W//qggC/78vb+V4Icvu8IprT+PY71tbKMIf/pxWh18zWSzUCgUrJLd3obt0iT0de1DYbsvQIFLQqVnAcVW8tgu3YD5dg5su74grizcgBI+doG4ngNd8m8bnlNH3Sz2YRtKha5AZe0FlVZPF3QWSvj1LGR1e9SceP5uu5Txl1DGMWTzp8AkOcRioGuy/jiRbFb33V5OO9tNn4I89aX8ZSLv04NOsJL7hxH405vXZfnJGvzPT4rwdzz8vT/ehh/IGmbIunuJKzEo4PcGxXf2BMdGYPr6dauUX7yArRKt4vAGn+xqi2uEkaQH18Qba8qDe2QBFBES1FnYhskrbVLgJJzxI1gQr8OvJ1HyF4pQpJvaD9dzoMuQyWpy1KVrVhL9gAgKfn28C6hbgEpu68UalHV7a9TeJiwVnUqn8mUZZzYL+VPue4OU5SHoxMayxVLwGBXHRnTf7SXnUp5peE9qOfg9a7nEES0m9/1B+MuP6IcS/ODP4oiBCvzwxSR8D2/Sv/zkOvxVHd2rpHODUC6JxxZXqOyXZ8KxDafhE6F1JuHXbblpTsPHJNWDzrf+AJ9M1CWnT8nfW0IOzojHZRt2wyiE9XHoo05li7DlUS5EGnKD9uMV+L004+A9j44jCy8Lxc34F0fpU3mxaCl/yVouaUROPPn794OXTz942QU//BvAX99cg798Xx3c6+QuqVVhCe43JbAq+Ez3OGIBeYqjuJ8bW8xGxCms+rZ4hxVzUMdNbirRTo9YUbvjHRQv8nzDdl7qp2573jHmkGOgegv2vlO9BWuRIIP5BSF0STB36nrazaX64nAT2/rX1LwIvP3zjSdpt6qay7DIWA4ZNe2x5qQgxvM9cFwwhYpjoZ11xi+OFQsVePqEPrPQEULPrD8QdwAURgYNCs6AclXCsbe99dO4IEVLcChe/SZJvw3H8INdlskjspL73t/8HeGUaPKPaOH9/ceb8Cdh8e0XlLsCefKs0Vtcxh3EqrVQhKVSCZaKuOTdLkFfl1l4lm70iDiFcEVRgAJXkhTvyJMCopgDCiyKIdAKszSJx30EevmKaseqT6ctQKdP3KRUOCT6KWIjctiK8GMgF1TfJPXdVg/K8FTVyV3CY8oVjCeCItWhcqm+BG5+XtQ4sH/bVkwpK2Kwsh3zvEQGha625oZ9lW2MqNgRajmvx0HHsYqX0NZqFbRwuCJdjyZLy0M0hSio7OJVxW+E/kIwT56tw/q6Kp4EFztp6BC32i72mkkS0ZTcn8eFEiNh+le3Evt/N+Af91qiSQTSb9M6rnEq6uEvlCjmMAi5XA5yg9ehvEmCfhsmbxsEK9YXrhcRJ1iDLRVk2C5RzGETXq7JGIJsA48bV5nblAsg29H168ZNyOWjYiNruDJWUjH8GJTwyhZh1l6P2tKXPo3HcnJ1DNAB71EdKmFujSbnRY+DYkAvsU8yDoNjUvPiTRjJwfSLF/CyASshd121OelKnmgJaRgaobN5E1DWb0/itJniWAae3ICx8XFnMVq4CC6WLEv4EC0c8CwUW1sLY5lVYJeuA94FR0LOa+WZ0IpoyEW8ED5sTxagDxc5onR1CWvdbP2n4Yi4WZ9YCzUmGQQrOVJcL1GxUflv2iZAS/ws/PVNQ6ztH0ZkvO5vk6js9t9doh+uxtBxhAKcSVeggitGqwAKepLET545BDGRLd50CFXtjiLh7Ig56BW8zyrT3Q4JbRG/QbFnijF46xMNjIEC9X7CsQmamxc1DlQ9S9fdNk3wvDSGbrNNKei501KpOhT7OtwX1vdIOCVNFi1a1Y7ywKfvdktYHoBjp02xtT2GcG3SwqVWZJKZtP45yezgEKzk/rYNP/gzJZlg+VsW/v4jtNJ+subrivzrmyWh/L73xysiLrcfaWwFqVaswq3XBZ2OUgiV6ixQcYE4iG6ZRhkDWhQ3i1DIonVH6eQU61owxADjItK8qHFkO4yCWM/LdqisiXCkB0eUNXclUkyvMVTihy0BRWwbwM8CKp9QkIXrUgAvPQsChZVdiZbwJlmt5PINm6ClXIB7xDpyJJm1KY7KvH6CldyPSvA/R1+osgb/++Yg/DUwmSSHSpC2GWzDD/97PHibwZ5Cr/4jxA5MZIuwtLkJW6YSyr2zBwg7BlwpT6/J1bEQfJMF6IyYuJEccjAthKePWzpmrIQXkYCiLfCAjdNxkY5qtWoXYMhMzHaQ7lAWKXNQiJx4UpfvD8KffiwfhH80vAVlT6IzukIF003UgtaQTuM/Q5EV20b02EZjY6DVsVR27RPywQQnEOh5iSuxwUJn6FK875k85EBbo6akEUHNzVo3O9KegLJ+W8Qf/TZOx03Nag0Xg8ydZsuJeb3Er+SQv//4ptw+8OdC+17p1Sj0+p8uCtpTSKNRa0tnZ/qscEVsS/3cArxuMrUpOJJl2twY0ipW5OR1ZKxp68EwjkptXkIlaERCJ4WgoqesUw96f1kJ+gzbO2rJMqexZj1q16qvIByV8EnbNtXXxhFqu41W/iID1eTSpozN2tYT7U5uPMs5iArMX5HPundRoDNBwyfJMPuDlig5egj/8pM9GJ9zZZWJPVRCwWWhUNyE6SbcPbUVLqWoL8C8SFvGT5H23gXDLd1kioKVXk3WQ+OiPW5yf5o5wcSf0GMQ7wVU7x1UdcZ65DmdcaGawunTfYsrfT+AWsajiheK601j8JuXdfEmjaj75DzkrsOSUABmRL+EbpKuXft9SG/xoKQfb7KMGX2tBKEUow1TdiWW+ZBJRJZ1Ztyv50bGb6Wek+PO63PitZEZm7WtJ9qdaI6Z0h5O3d/b0vsCT+BX+pilROX7O/PWtacizyXXOEWY9SwKgmO5zP6lRUqOyMGf3izI+NyLBfieOvpacWWViT1UxRJsba7BdNMrYUpD30Qhh49oaRImRdoyfj45BsXSZktfX0Vp9VtqP1uptC2VdkPnDDmG9Cm5P4zeO6jqkFqhOu6FgiXYVd+aC3qGRY6jSBmB1jXHWRH79czzIlPdm0fHy8xgv9boNVZqj5/7Ply7jjXCoi0q98IiBKbsSixlk5vVhN01G0YvikxHeV/RuLf1OXHOs7TPctO26NCuWEM2Mimi+7b+yktma2/ygfpODj4eKQr3sK4r7j2aZ7z+L03x8cozVJdYpU1uX6Z9vDE3N/eqJ59Xv+4faN8OZYUdaOgNIYWSUHKtVKIM007obTl9JbmXM4onohnopc9kTRdKL5ry6DB7jxZacgzDMNGR1nA73yPZxgxVpu2wkmMYZm+hXJZte49knf/ah9nfsJIzol/YG6bw/1zAMPGiMlWD/seFGJGvRGtnhirTTjgmxzAMwyQWtuQYhmGYxCIsuYsXL6pfGYZhGCY5CCX3s3feUb/uH356/Dh88/ix+o1hGIZhvLC7kmEYhkksrOQYhmGYxMJKjmEYhkksrOQYhmGYxMJKjmEYhkksrOQYhmGYxHJAlFwVlgaOw0+PT8GGOsIwTAvZmBLbfK41+MBtTPHzysQDW3JMYqguDwjB2r9cVUf2CdVl6Md+U98dZWAA+qeWYSPUcPRCDsuUSTXY/l6nmOevXvt2sO6dFYDMKHzUrQ5pqhuwNIXjsp9vYAqWXIPs7h+FDKzA/H67lsyeg5VcaDbgGj2UA8v4CDOvjwRfh0wGzp09a5XMzg7srMzA5d4QintjEaZ31M8rjwwWUAoOv19rW5SM/Esm4zz+wVsp+Qc7ddu3Uf0avsC6mfdP4Fnt4LXrHYZp1H9wdhRuzc7CrdGzgIOE6eFep9WXOgEfYP92Hn7NzxvTFKzkmMSQOn9XvAVn8bxBSO8HOi7A1YkJqyziWMqzZNGgsJ9xKQEXG49Ic5CSpNor8JWhbvf5WttUPnpfarmjF5zH+9zWFxKmfU3164ewg3U/OOG8DtXlO3APP8/N3oXFifPQ3d0t+rS4Ksd475FDy8G71L+dh/AH1nJME7CSY5g9TKr7PCzOorWD3Bv2i1FtwFfCOkIl2f++QWE0S5T2q/CHh8KMg3dda43nFTIFM5A+LH+vR+oEnWsHvviatRzTOMlTcsrnr/39Px1AweD7jFSx+hT0O2IVA3DN5RqSQfBhsQrFJTXkdV0rNhGuncao4vm9MQzPmGyBftEXqz72Q1euLsM1q48+/RPtDMAS/sk9pn4cr+cbtvNSP3XbSw4ZGHIMVG/Z3neqt2wJ9rrXQfXF4dqz9a+peRF4+0dxM6sdB8qtquayKbr7YYw0i58FtfFIWkgn0QRTbr66LsUoRGlfuSqh4y1w29OH0/RFr9KSlh+qP7f2S70FR/GDXZZMMyRMyWmfP60kZXyBgteXe3tr8QQb1eVPIT8slqgwRvGB2VE4l9mBezO9DkHZ3S//JuQMtivrYumXfp2w7USHgv29cFk07YxhXO41C897dwZkX0R8RQqVe8PYD1JAvTMorPS8BPfvi09VO1Z9Ou0w5H2SDu4NHxf9zNB5xURpwo9hYwrrzVDfbfXgITxXdepdhyCanxc1DuzfjhU7y4i4mWwnNpViQLnukG+/814v6Uo8Cz8X06Drxpe0Ean95xWzwkJS538plDW5XmVCDS0a8LrM4DfOzsKUx818GKRerMBzeYBhIpMoJad9/pnRVfjmrowvLN59DOVRKSDcpE5cgPLqY6xDcYhu6O4+D1fvzsI5/Jtj9Ziiv8lVJf2vxe+KuljUMxm6nYiQ8iTlbI5h7MD0okGwYv0x6ouIr9y1xr6Dit8xLyoOYu7fDqDslu3o+o/leGDljo9lksH61E+sf/euFdcJP4YqPN/Fj8woTNnrUVta9tW5DoE0OS96HCSMv8E+UV1qR8/LjmdeuuHq48fwzWNb/5sg9VaH+smNdiWexDNKUucvNH3v1YjWfvU7uogAR03JK6gg++6uwi1cHMiEGlo0qPmf6PZYflT/sBj2rrXQYZioJEjJqVgArjiHXCtCvYL0gEIz5XmyGlg9xtWOAx3bwBX04SpUcdVrFUBBT23vfucRMpnRXzqEqoxrICicHQkZ2u3k0z93OyS0PxKKwRwj8dYnGhgDJRoY3X/N0dy81O6tWyiMnQTPS1xo5eHGSuYgV6JFN/ycjOAYkjZib7/6NXy1S3OJVjBaxMTOzKcxufYZxkuClNxzkHHtNKqXKKDA3ViGpakpuCbKoowpRCaudjRqPMKt1wt5RxmGe2HbVnGNOPC3JvyIMgZc5f9SunkpnVzEupYNMcC4iDQvwfeWnpedSuudak4LqaZ802hxbWzUCikR7FGTijfm9ik+KlzDo3CLrH60iL9ZncUFqHQR199/xzDRSV7iSRREIgIK3OEZmF5ZgXuqOGRvGOJqx0SGBMIqlE3l7nmDi2cPEnYMKXLzyrT5czh792aGIR9H4sa+RysbV2aiTvIA2mc2DJftheLSSFMuy1jb34BrKsZ7C6+55WJOdQsXpvC0+LrCGaZxEqTkoroH5VsZaD/PudlVsb9KFvXAhSaudtzUxkO+0JSpyIptIzjeYqKxMVDavFR2widmjj22leB7S8+LKdkiFrSycaXl6/1oFGus3Xe1cktM3wx81uD0xdp+9Tv4lj6N1rCOvTFM/CRIyekHxZ31RenrKmnAgXZBvQ8fOTIX8Lj6yYmfoIvaTljqZLGJ2Jb6uQVQnMS5qt6AzygLzm1NBNLcGFLdJ2Wyi4Ooi5k48Lu3kGptXtybn2OBXvnVO4PKBuDcBbvlrq27Djjsc9ruk6SFGt0z11j72nXryQLV7mHjdVNJR55z+R1nmPAkyl0p33dHArpX7MOi2Bi5EUVqO/3BgQ6ez8AEpTNvbMCS2APlF++qCbrLou0BlTYetZ3wWFlsKuV6ScRDKO5Hae+9MNHCRAc8K0zT66T0WNX+NHOCiT+hxyDe30hzKueQ6lwbkOd0Jj34XYfW0j2hsigpdkTxQhF3pTH4zQveB2LvXQR36+4d1a4sYj+eUHAZODe6Clft06Bfs2XLevSgFwmN7JlrtP3DafkMeuKTOkGHrpuMt4rrTM/KgNzikxntd50rOBbKMGFIVkwudR4WV1EY4bO0syPjYmLP1epdGJILTAfdE6swptOZh4dhemYXjs5SirOq4EIIOvEEU9v49CmTJmo74aE0dJlyDdi2jIvg524HjGH7rXx9FaV1l9V+NhqrdsdGP2fIMaROwBDNl5pDqkN716iOQ7gjftehtchx0HUWe+NE3BVnRezXM8+LENBRsNqVRezHG52FMt6/V13ty71r7gWAG7UAQ8US9BouEw23r7NTDZm/9No1GW9F62+GrjEW2heprrNnDpWLM+N5BybDhOeNubm5Vz975x316/6B3jZBcQEmZigDbnhFKLlWKlEmudCbaS6vyH2TUax+N/S/StBG8XOzjz0LHYYJy8HOrmQYJnZk2CCm7Qum/66HYSLASo5hmHhRLss4ti+wq5JpFlZybUO/sDdM4f8RmdnPpKDvAsVzG9++sLFICTfetxcxTFQ4JscwDMMkFrbkGIZhmMQiLLmLFy+qXxmGYRgmOQgl15PPq1/3D28eOgQvX7xQvzEMwzCMF3ZXMgzDMImFlRzDMAyTWFjJMQzDMImFlRzDMAyTWFjJMQzDMImFlRzDMAyTWA6IkqvAfM8hePPQOKyrI3uG9XGxHSK/0Nx/scowzGtAPb9jDQqW9fE9KpcSBFtyDLOHqSz0JGcRVFmAPI6FxuMoPT2QH1+A9VBD1AtWLOMm1WD7e51intN67dvBujdKANkifJxThzSVdZgfx3HZz9czDvOuQeYuFSELJfgVL3JbBis5hnntrMMYCcKeBRSbB4BsFgqFglWy29uwXZqEvq4Qynz9Nkxuq59LDwwWUBqO5Gtti5KVf8lmncfzb6flH+zUbd9G5UsoY91s/hSe1Q5ez64CTKL+g0IRlkolWCoWAAcJk4Uup9WXPgV57N92+cuDce1fA6zkGGYPkx5cE2/2KQ8aBPJ+5dgITF+/bpUyjm+rRBYNCvtJlxJwsf6ANAcpSapdgvuGurnBWttUPiYtghwbcR4fcltfSJj2NZUvy7CNdfOnnNemsnADv4n6rbQG5euDkMvlRJ/Km3KMpQcOLQfvSS0Hv2ct1xJYyTEM89pJ5wahXEJrBykV/GJU63BfaA9UkpfyBoXRLFHar8DvpRkH77nWH5VdMgWz0BFyXZI+RefahvKXrOVaQfKUnPKFaz/4mz34wATeOxVYN/jO7d+RwWGf4LIxcQTbXBh3xh96evD7IW9i32B2UAIN/s0+7kMU51jHo5oKTg32yRGvwD75uoeaHEMg9edcYJsH0Xervq0flQUYs8bkMx7RTg/M45/cc+CcI4XtvNRP3fa8Y9JDjsEwj/meBev6yXurIFb+aMZAp66n40GqL477y9a/puZFEOU6K7eqmsvYyV2CImkWPwtq/YG0kE6jCabcfHVdilGI0r5yVcKxt12uSvxqB33Rq7Sk5Yfqz6390m/DMfxgl2VrSJiS075wWmFJvzsFdfu6ump+dgekNLqgT9zZTt95X1ftQZbBYfOqTrs3ai4L1eZkCbat2ENWxB1KhS4hVOOHhA+O0TbuQpbiHAUYVsKtsnAFOgtioFCkcZaKok5pEvvkEYCtHEO4ObdTutEj+676QQJE9gMVUNckXmE5ZloNm8cjKV9R7Vj16bQF6PQZT6lwSPQzK+ZTHRSEH8P6uJxHRz0ow1NVJ3dJXgvRPF47eW2wXDL40lw0Py+v414NQrnukCfPvNdQPmsFOCOmRteNL2kjUvuVXbPCQtKDN4WyJterTKihhQReKxJCeL1mPa7nNEi9uItXhImbRCk57QvPFjfh5Zr0u5fXXsCWXB56IMEv7zuT73wbJm+rh9x3VafcGzaXhW6TbuaXa2vK/4/tvyCRQ3LwRuyrYNO4p3HcLzdL8IkKrqdPjcDW5gucD4pF4Dhzg1hH9cm1gmzlGELPuR2sX6S+q37o67mNSt1xrVXMw7wiRqWv29H11XhQW/iMJ4v1qZ80n2tWDCf8GCrw9Al+ZIswa69HbWk5l6ZrIVfyAB3wnrg2WLyy00uT8xL9Oudg+gXeVy9s/Y+Z9NtyJrxoV+Jp7IUkPThivH8bI1r7lWd0YcmQM01EGobWNmEJFwwyoYYWEuqaXM/hX92k4YgY9hNr8cPER4KUnPKR4235iWulpFdWTrRPHVdu6QpUcLVlFUChQ/WfPFM3d21V53CjKPdGLbuq1oclvJmd5OBj0Ym4fe/+45YCtPZz2vN0mVaQrRxDlDmvkS3edAhVGcNAUDg7EjL0YsRnRexup954vPWJBsZASQVG919zNDcvr+NerY9WHm6sZA5yJVrk4IzUQk0nbcTefuVLuP+E5hctY7SSie3JKwFuY6ZVJErJyXhvh2GlZELVFy6mLuh0lAKQ58+OFiB2l6XJVRnUB71K3d6N80aPMm4UxOsLMD8+DmOi3JZxBQetHEO0OfdFxTDiwN9y8CPKGHBFf1O6hSl1XMS6FgwxwLiINC+v414Nj9NCqinkDrS41tdrhZ4/7GWTyjjm9ilmKtzFRVgiTwBayeRVKarwgBVvZdpC8hJPopKlG3ETtkxlbbAmACyXpXbh1DKxWuW6iRWRoICCuDAJk6USlFRxyOR2EXbO9zKh7xtyC8sU+QLOdmmyAJ2tStzY92hl48pM1EkeqDYmCwXosxe1qmjKZRlr++swhpY0KcwlvA8st3M6J1yYwkBuQciC8SdBSi5q8LZWn/x4aVORFRW4Kh8Rvgu5qrNnYlkE90G7YkzBahOm4LsvgeOuiDcz0J6eQmlT7LuSRT10DuIdg5Ooc956gmMrJhobA6XIS2Un7yFj7LGttPI6N4hWNq60fL0fjeKPtXu3VpbElE7Crxuc0ljbrzwDMXNGC1nH3ph2kiglJ28gdzYUpXqrALuDetlTFGdRP2typ3F9hvc7rurmHZlYGr8+IJV1+LXohHfzqB9uV5GVKOBAxQ18zilfI6RdU3n42JHRgMfVTzXiHYOTBuY8Rigm4lxB18YTXpY3N4a0uoecBCuc1tDK69wA9MqvrklUNuQcsVvz2ro7Bkd8upI7LWe0sT1zjbWv3bmehah2GRuvpUpE8pzL7zgTB4lyV+pUf5G62yPjTuSiE2ng9AcXVvaUSvWdF354illRCnYXDHv88DoQTS4//LRlYmly11VmGvneKQYjYl/UntwLZU5mcKH3C+Gqn/b5iXH0HILOSfM47OPW9cUeKdpO8YDGUOv3MKU04zjnxd4ocxwsljH4EH3O4wQtKHp1lJgj2uPW2HhCj0G8q5H2K8o5pzpjPfKcbg+AVjh9um9tiNtEv85434i9d026W5/cUOeSRezREwouC4XiJkzbp0a/ZsvwrFnohUMje+YabT/dIZ85T8xSJ+3QtZQxWHHt6XnrkVuZssVLrnMFx0eZ5khWTC49COVNfHDxHtveljEnsT9pcw0+kQsvF5QSLVN9oYSKS/jh8fPJMSiWNo2vUtKrOrwjoWjcyyTbLOr9RiL2hY+v2ANlbtMLJSxQoJoGosaBj5nvOKxx1+qXtvH8hRJsqcy53HXZJ5HSjOOcnHwCx7A/whXjIY4x+BF9zuOCUri31H42Go8Qqg2dM+QY0qfgE5pfNedUh9QK1XEIckQoHGxO9y2CadkE0a+zEMbNYp1LFrFHr4j3Kt7f065zyuQu96LATc2bEfQaLhMNt69j9IZsYHoVm4zB0qWn645FrorN86pcnN53YDJx8Mbc3Nyrnnxe/bp/oDczkL+cYepC2W6o8EnJtVKJMgcLeltNX0nupWwm+Yz+pwnaKF4ovfAsfpjm4exKhmGYBpBhgpi2L5j+ux4mFljJMQzDNIJyWcaxfYFdla2DlRzTBPqFvWGK6aXSDLOfUduKmti+sH6bEm4MbytiYoNjcgzDMExiYUuOYRiGSSzCkrt48aL6lWEYhmGSg1ByP3vnHfXr/uGnx4/DN48fq98YhmEYxgu7KxmGYZjEwkqOYRiGSSys5BiGYZjEwkqOYRiGSSys5BiGYZjEwkqOYRiGSSys5ILYmBJbFfqXq+oAwzAMomTDtQ31ewvZmDqO55qCNpwqkSRLyVWXoR9vvJ9OuW4HfdxdBgagf2oZNiLosOrygPguK75ks2+vs+1e73c/BxqTgPZ7dmzoOTF+j8pAGEG8AdcGVH234PZ7TlVxXIuAZ/qa6YGuO74qVHFe+q2+UdHywd1eFZburABkRuGjbnXIDZ5PjtNnTgLH6vxOd/8oZGAF5lnmNMTBsuQyGTh39qxVMjs7sLMyA5d7WWkdTFDgklAZWEaxlTx2Vu7AUjsHtlNfEFeX78C9HfWLH67nVJcP3kqpCjYcdTPYhx24N9wbqKy9oNIa6IX88Ap+PQMZ3R41J+TDoksZfw1f4Bgy758AQ49wjLgY6J2pP04kk9F9t5eTcFj9XZA6AR9QXx5+ncj7tNUcLCXXcQGuTkxYZfHxYyjP0ioJb6CZ3lCuh9T5u+JNK4vnTbc3kxT2+3UmQZ2BHZj+tE0KnIQzfgQL4g34bAYl/9lRGKOHzg/Xc6pLn8lqctSlazYr+gERFPzGVC9Mk0I6Owvlx3dhUbd3l9pbhVujTqVT/fohzmwGPjjhvjdIWR6HPI4xMzobPEbF0Qu67/bS7VKeKXj3faHl4A+s5SJz4GNyqe7zsDh7Vvx8b5j93kwy2IGTMES39c4MfNaWm/okfDRKgjjgfBuP4B5+nDt5Qv7eErrh5+Jx3oHKc3EgmI0puLyCn5lRKHuUC5GC7vP241X4w0NhxsG7Hh1HFl4GxlZpceSwxZomdeJ9sWj54mvWclHhxBOiu1+tulbgq3oCwZWMIoPCPgFoV139O9XdmJLxDfL7Lzm+W4WN5Smnv94vzhAZbBvPa2+7n+Io7qZt/RRxCqu+rR9WzEEdN7mpRDs4PvyTO95B8SLPN8LOT5gxGOaxf2DZWsTI6zYshC4J5ryup91cqi8ON7atf03NiyDKdVZuVTWXYZGxHFy83WmPNScFMZ7vkeOCKVQcC87Cz/3iWLFQhee79JmBdAg9s/GI+oSK98J58Co4A8pVCR1veeuncMGMlmBfqIYiknoLjuIHuyyjw0pOoNwByLffRbuFLEFieLDlA+R1a9wbPi5Wj8L3L0+rkLGByzMrsGPFGjIidkhxBt9EglCotoWcGYVbs7NwaxSXvDsrcLnXLDzv3RkQcQrhiqJ4B64kZT9UzAEFFvWRVpj3ZvC4j0D/4lPVjlWfTjsMeZ/x1J2fEGMgFxTNo6MePITnqk53Px5Trmo8EYxRHSr99SVw8/PSyutsA4WutuYmfJVtjKjYEaw88npEdBxrtB9trVZBC4dPpevRZGl5iKYQBc8reFXxG6G/EMy3323AxoYqngQXO4chLW61CoQxUJkarOQUqbc61E8R8X2wN+ArEsbGh41cGsr3fxdXfuqpr+oH9OwsfIPHpX8e66k4QzOJBLrtc7N03vPQ3d0N3ecnYHGVBP0OTC8aBCvWF64X1Y8yuaPo8ArFHFaxjzKGINvA48ZV5g7lAsh2dP26cZPg+ak/BiW8MqMwZa9HbelrkcJj3XJ1TP/D87tUh0qYVXiT8xL9OnfD1ceP4ZsGrITuCdXmjCt5oiWkoO8CaVVvAsrG4gxOmymOZWD3DlybmnIWo4WL4GLJsoSP08IBz0KxtbthLLPnUKHrAB1wOOS8Vr8TWhGOmpJgGmBnZhguD6vS2yusdbP1n4LDQkTtWgs1Jhys5BT65o2OtgJdrk4VfzBlYGVGf2kQVsrXj1bArQn3WrdbxjtQTDTmk9dxhLPw88NVqOKK0SqAgp6a3v3OIYgJdz+1O4qEsyMhQyt6n1Wmd7zB4wmcnyhjoEC9n3BsgubmpZXX2YRus00p6N0npVJ1KHa14Dt7wXBdDZBFu7LiLI987Be7JSwPwNGTptjaHkO4NmnhUisyCU5a/8bwB9MQrORcNLJCM8Ui/FyV/qhVZSbtTB9WaEtzJ1Q03Y1qW7j1eiHvKMOhUp0FKi4QB9Et5yhjQIvil6NwLoPWHaWTU6xr2RADjItI89LK62wmdf6CsuY+bdgTEB6V+GFLQBHbBvDzHCqfUJCF61IA33gWBAoruxIt4VWyWsnlGzaBTLkA94h15EiCa1Mc9SDASk6gV9cRfPN2LJeldjNFXLm2i8wo3FpdhbKphHLv7AHCjgFXylfvytWxEHwzw5CPmLiRHLrhqhCePm7pmHHGqbUFHrBxOi5SUa1W7QIMmYnZDg6nxdwx8cFKjtAZU6GC1SZ0LEK5maxU6ShPdXBgWbtTGwt419qGVAr/GYqs2DaixzYaGwOtjqWya5+QD6aV1zkAnUFMC7Hv5CEH2ho1JY0Iam7WutmR9jj1xqKIP2Z8Nk7HTc1qDReD7D7JllPSYSVHr9fppaB4hDRiE7ZYxJJwVUZNldarSsMqtKo20UZyf9qpxQ2NK1wR21I/twCvm6w2nvCyvLkxpNT1cRKscFpDK69zELWF2DRlnXrQ+8tW4LJhe0ctWeYk1qxH7VpdVlm1Q23bVF8bR93tQIRW/iID1eTSpozN2tYT7U6OmoUdjiosfSplkXdRoDNBwyfJMJKDpeRcWVtij5JQcBk4N7oKV5typ9RiEdPiuQ4jDJzUMuFUHEn0k9LS5X4uc0JGOGorXEpRX4YlkbaMn6L9Xpho6SZTFKz06rQBOZ5+tT8t6nhCj0G8FxDPQ+8dVHWuDchzOq3rmsK5rPsWV/p+ANGv84Z4k0bUfXIeuifgljRcjIh+Cd0kXbv254Te4kFJP95kGTP6WgmiPgum7EosSyGTiCzrzLhfz42M30o9J8fdr8+J10ZmbNa2nmh3ojlmSns4dX8XpXcIdmFeH7OUqHx/Z7917anIc4mFBGUFexYFwbFcxp+DpeRcWVtij9LoLJRX78LVGFaa+uHCOxHGQuy38kKp4qswpvdMiX6iChb7uFabfMWUbPsW7etaQUUs0pbxc7cjhraDobT6strPRuMRi4qGzhlyDKkTcn8YvXdQ1aG9a1THvZCxBLvqW2NB2ahEv85CwMWAjpeZwX7dpddYqT1+7ufk7gTWCIu2qKK67RFTdiWWL0xuVhN212wYvSgyHeV9RePe0efEOc/QPstV26JDu2IN2cikiL6y9VdeMlt7M4+Ux6AbProwKtzDuq6492ie8fp/Y4qPV7+Db/GjXW7fJPHG3Nzcq5+98476df9A+2Io64rZw9AbQoZXhJJrpRJlmHZCb8u5vCL3crYrsYxe+kzW9LnZx016nA4eHJNjGIaJgLSG2/keyTZmqCYQVnIMwzBRUC7Ltr1Hss5/7cMEw0puX6Jf2Bum8P+swDDxojJVbRveW4l8JVo7M1STBcfkGIZhmMTClhzDMAyTWIQld/HiRfUrwzAMwyQHoeR68nn16/7hzUOH4OWLF+o3hmEYhvHC7kqGYRgmsbCSYxiGYRILKzmGYRgmsbCSYxiGYRILKzmGYRgmsbCSYxiGYRILK7lmWR8X2xnyCxV1gGEYJiJKjoytq99byPr4ITzXOLThVHuCZCm5ygLk8UZ5c9x1+fRxd+npgfz4AqzHrJ8qCz2ifVZ8jGbf3hO2Zyfvfq40JgHt9yza0HNi/B6VnjCCeB3GelR9t+D2e+5VcVyLABkxZhIQdcdXgQrOS97qGxUtb9ztVWD+RgkgW4SPc+qQGzyfHKfPnASO1fmd3KUiZKEEvzog8ulgWXLZLBQKBatkt7dhuzQJfV37XSHhg043c88CPi7M6yPZ12G7dAPm2zmw7fqCuLJwA0rb6hc/XM+9Lvm306qCDUfdLPZhG0qFrkBl7QWVVk8XdBZK+PUsZHV71JyQN7ddyvhLKOMYsvlTYOgRjhEXA12T9ceJZLO67/Zy2tlu+hTkqS/lLw+EvDhYSu7YCExfv26V8osXsFWiVQ1e8Mmu2FwF6cE18TaW8qDplmUOIvv9niBBnYVtmLzSJgVOwhk/ggXxOvx6EiV/oQhFeoj9cD33ugyZrCZHXbpmJdEPiKDg18e7gLoFqOS2XqxBWbe3Ru1twlLRqXQqX5ZxZrOQP+W+N0hZHoJObCxbLAWPUXFsRPfdXnIu5ZmG96SWg98fAC134GNy6dwglEviNsYV28HxUzNMFLbhNHwitM4k/LotD8lp+JiketD51h9ACT8Kp0/J31tCDs4I8bANu2EUwvo49FGnskXY8igXIg25QfvxCvxemnHwnkfHkYWXheJm/Iuj9Km8WLSUv0y+luPEEyJ3Sa2SSnDf80Dhampcxg5kIb/6evBq1jcZpYJ/wu9bbWEdiju4q9liHMKvb9XvgTFXmzKIXBAPOwmETl3X4V4Jed7IxDAeXdmKOajjJjeVaKdHrKjd8Q7jNbGdl/qp2553XOOwc4P1Fux9p3oL1qKo7nVQfXHcE7b+NTUvAm//fONJ2q2q5jIsMpZDRk17rDkpiPF8DxwXTKHiWGhnnfGLY8VCBZ4+oc8sdITQM+sPxB0AhZFBg4IzoFyVcOxtb/00LsDREhyKV79J0m/DMfw4CC5LVnICZb4jT57ZLzkJgy6YJGe49nVnKY5XgGFfYeOH9NOLVV6hCEulEiwVcYm4XYK+LrOwKd3oEX59ee6sWHmVJrscgjJ3CdtRLleqV6R2qVzST37084ajifGIOAH1WMY78qSAKOaAAovm2DROO+Urqh2rPp22AJ0+cZNS4ZDop4iNyMusCD8GckH1TVLfbfWgDE9VnfrXwZ/m50WNA/u3bcWU8H5R8STfhJGooNDV1lz0+78BVOwItZzXw6LjWMVLaGu1Clo4XJGuR5Ol5SGaQhRUdvGq4jdCfyGYJ8/WYX1dFU+Ci500dIhbbRd7nWxYySnSb9O6xokIauNntrgJL9eUf3vtBbzcLMEnpqB1ABX1sBRK5KMfhFwuB7nB61DeJMG4DZO3DYII6wtXhTg3fk/UxcP21Vca28nJVRlAB7xH7VJR3WvovCFoajwiTrAGWyrIsI2LCPscG8dpgYsMx7xQbLVe3IRcPio2soYrYyUVw49BCa9sEWbt9agtfRvUuQ6BNDkvehwUA3qJfZJxGByTmhdvwkgOpl/gfdyAlZC7rtqcdCVPtIQ0DI3Q2bwJKOu3J3HaTHEsA09uwNj4uLMYLVwEF0uWJYwL3D6c2CzO69ZaGMusArt0HfAuOBJyXivPhFZEQy7ihfBhe7IAfbjIEaWrS1jrZus/DUfEzfrEWqglFVZyCn2z1VC+cnykP3H7w4VAUz+HQvvdC3AmXYEKrrCsAigYSXI9eeYQXES2eNMphPTKNvTqq7Hz1iee8Wh3FAlnR8yhzjg984JCW8RvUOyZYgze+kQDY6BAvZ9wbILm5qV2ny5dd9+UwfPSGLrNNqWg505LpepQ7OtwX1jfI4braoAsWrSqHeWBT9/tlrA8AMdOm2Jrewzh2qSFS63IpDpp/ceVVLcfYSXnoraiUquybEcMN7hqS7jBuqDTUQqhUoMbo1XnjaldFReIA5MlHkyUMaBFcbMoXNWTlE5Osa6FOnHZZog0L8H3qZ6X7VBZE+FID44oa+5KE+7usKjED1sCivawFFD5hIIsXJcCeOlZECis7Eq0hDfJaiWXb9iENOUC3CPWkSOprk1x1L0IKzmBXg1H8KU3QrYIS5ubsGUqodwhDdKq876u8cRJ2DHgSplc1bQ6FoJvsgCdERM3kkMOpoXwbNzdHQUr4UUkoGgLPGDjdFyko1qt2gUYMhOzHaQ7lEV6cGElR+gMJ1NwOZbAbC3IC+k0/jMUWTFmWnXe1zUef6LHNhobA62OpbJrn5APpjYO032q5yWuxAYLnZFM8b5n8pADbY2akkYENTdr3exIewLK+m0Rf/TbOB03Nas1XAwyd5otp70GKzl6HU4XBbHJxW+3PvT+GMMqrrIO85FiMzp702dFKGJB6ueG8BN0rTpvq8cTjNdNpjYFR7LEmxtDWsWKnAQrnNagrQfzfarnJVSCRiR0Uggqeso69VB7fvoM2ztqyTKnsWY9ateqryAcld44ecuojcO7vciAVv4iA9Xk0qaMzdrWE+1OdmZ1x0UF5q9I2eZdFOhM0PBJMvuVg6XkXFlWYk+RUHBZKBQ3Ydr1tGk3Cb0Nhd6jJ75He5a6CjDpF7j2obYipJTuBVSSlOaLnyJNvAuGm0oMqAm6PtFPuZdP/KVF523teOqBgpVexabHqvanmRNM/Ak9BvFeQJpTFE6qzliPPKczLuR/HVpJLeNRxQvF/U1j8JsXXKSJvXdNultz12GJTuyD6JfQTdK1a3/u6C0elPTjTZYxo6+VIJRitGHKrsQSdqFqWWfG/XpuZPxWyg057rw+J14bmbFZ23qi3YnmmCnt4dT9vS29TfAEfqWPWUp0XcilvHXtqchzyTVOEWY9i4LgWG6SOFhKzpVlJfYUFUuwtbkG06aVIWUsUfAZ61GCgvieeBcdfifkw1mD0rY3UShgW6VJmBRpvvj55BgUS5tNv9HAEiiin3j3WiZNq87b2vEEQWn1W2o/G41VLFIaOmfIMaRPyf1h9N5BVYfUCtXxLIx8r0MrkeMo4onF3jhxf+OsoBLxuxZCwMWAXgiawX6t0Wus1B4/93O3dh1rhEVbVO6FRQhM2ZVYyiY3qwm7azaMXhSZjvK+onFv63PinGdpn+WmbdGhXbHGLOcK3Lf1V14yW3uTD9R3cvDxSFG4h3Vdce/RPOP1f2mKj1eeobrEKm1y+75O3pibm3vVk8+rX/cPtI+FsqSYAwS9IQQXGKTkWqlEGaad0Nty+kpyL2cUT0Qz0EufyZoulF54FmpJg2NyDMMwrxFpDbfzPZJtzFDdA7CSYxiGeZ0ol2Xb3iNZ57/2SRqs5BhEv7A3TAm7MZZhmHCoTFXbhvdWIl+J1s4M1dcLx+QYhmGYxMKWHMMwDJNYhCV38eJF9SvDMAzDJAeh5H72zjvq1/3DT48fh28eP1a/MQzDMIwXdlcyDMMwiYWVHMMwDJNYWMkxDMMwiYWVHMMwDJNYWMkxDMMwiYWVHMMwDJNYWMkxDMMEsTEltixd21C/t5CNqeN4rilow6kODKzkmANPdXlACLH+5ao6sveRwrCe4K3C0oCf0NR/wzIV0Eh1GfqpjrsMDOC5g+arClVUDv36HKIMQP/UMmxUbd/T7fv2YQOuifMtY4t+tHIs2PadFYDMKHzUrQ4pqlXsG3631ha2s7zh088qXjMcv+28/QN4XVyVu/tHIQMrML+P7sW9zgFUcmEemjDE1Q7THpJ1vbpPnhWf9x4FCfWv4Ysd/Dx7ElzyGadjEabpb8TKI4MSdJHJwLmzZ1XJAOzswL3hXh+lQkqnF/LDK1gtAxn9Pfraygxc7l2sf74otHIsag4z75+AlDpE0MIo3zsM9+hvuh3AdmaGIe9pR87H5ZUd2NHnxs+dnRWciwFYst+QqRPwAXXp4dcsV2KCLTnmwJM6f1e8PWfxvF2M7XG6+2GM5GqAUK9+/RDFLsC5kx4VBxuP0DpBm0EK5xX4qp5m6LgAVycmVKH5moVzdHzljlNIIxtTvVLpnJ2F8uO7sKi/d5e+twq3Rk/CYVk1Flo5FjmHGfjghPfeyIzax4ftrJIVhrjaqS5/as3HNzgHei7Ks7RQ2YHpRXuHU/Du+0LLwR9Yy8UCKzmG2ZcoYegr1Kvwh4dCssLPvWYcfEV64SwK+/73hWAOtAiNdMPPhTG5A5Xn4oBkYwotFvzMjEJ5otth/UhS0H3edLxRWjgWPYeZ9+FdV4dpYbToHoeywpzt6OuQgbF+54VI+SxUUidoHDvwxdes5eIgYUquChvLUy6/97J1A8k4xjDco192ZiCv61nuBXMc4ZrLP163Hd9AtY4duGMkwf1ujHAxAHtfxdit+rY4RXUZrllz4p0PgWhHul7cc9iP8+L5hu281E/d9pJj0CHHUGf+wl4vR0zO1r+m5kXg7Z9/HEi5VdVcBiGFIQr1OwYXbKCr8pGYC2HhacEcxs3noArPd+kzA2mbWSatKmz7wnmIT5EF0MKxWHPY8VbEsdjbeQ4VoeO8ihI7DIc76HMXntsvYOotOIof7LKMh0QpOXKTXJ7Bh+zsKNyanYVbo7Q8e2jdQN39eGxWuRQyZ2GM6lBRKyxyK1AcgVa/8m+jcC5DfvZehwCs105U6vU7OjoGgD/a2zTFABT37gzIsdvjC8M4blJAvTMoSGQMg1aY7vmw88Wnqh2rPp3WFKeQ3Bs+Lvop4hpiQjXhx9DsdQ+i+XlR48D+WfEYbCej4kC0AGgYLdQNrq36rkpt4dUswvDJDqS0lQvOIbx9lEULad1YkOcVMYeZ0INRCg064LBup/odfEufPorycFreU04L8jDIwxVskWmWBCk59YBlRmFq4jx0d3dD9/kJWLx7F/r03ZXCY91ylUT/G++7VIeK+nvqxAUorz7G70xAn/jbebh6V/rrHauqOu1EI0S/I6JjAOdmKV5ga1PEDNwxAAXWH6Oxq/hCeZSeMjy8soNdW4VvcE4oliDbcM2HxQ7F8GU7un5AvEOSwfoqrkFjVjI5/Biav+6BNDkvxngMtqPnZcczL91w9fFj+OZxmOuvhbrbtRXGVVmz8FLnL3jvcTe4ULGs0OOktHH8FHO7a7fYDEI+LLt34NrUlKHckUrCSCvHgrP4ndDYcPStcIOpLt+R3gKT9RwJHwuPaYjkxeRoVWt0A4UAhWHKcz+3aVXVTL8d6DgCCrjDVahWbQVQ0NNYdr/zCIDM6C8dQlW7wkg4OxIyLOvBPB/udkhofyQUgznG4K1PNDCG2ObPSXPzUlM2tybcYi94XsKi++MQ6gGuSi2InRaeikkFJTvYrVB5AI5iG55L1yhk2a6sGAounFQVN3tqLNVlmEBlab7WzOskQUouBX2/lO7FaUoHppiH756VIFCQbizDkrWSXJQCo2XE1W+NWk0Lt14v5B1FpjyHQsUF4iD1lliWRiDKGOKevzpEmhcdj0kbswn1vOw4fVXRMLgs/V2VNaWbRitoY6NWSNBjI/4K18pIRCt0laxQcre6Y8tqQdiIBUKWrrBg3UV5Ajy0eixR2IBrvTPYCnklJjwLC+b1kixLLkXuxcdQplga3bi0ZyVEAN9CJBigIB2egWnbatIhU1tBs/02kRmFW6urUDYVl1tmzxJ2DK2Yv32D22WprWDv5mXLwoMVXBAMw2V7QYuJCHTzaVLaCnXHvrSbzR1jagEtH0tYKOYqk5rIte7xSuhFkcF7QjyXq6C2xTAPIslzVyIpEUsjoSf8FuYYlAe8We+QQsvgzbpqW0muyjTfBvj2u2gPTWP9dlNzr5LvNWUqsmLbiBrbaHQM8cxfnAS7uvW8hE9sMONwWSrhn3FtXib0ni+KMTqtJVluiWmbgc9CTJsV+5pxbuy2NqmbMj5jpB1jqY9MKpKx48dw1WjCBd0DKqbYSAyTCU0ilZwm1X1S3LxO/G467Vp6H1fA9jsOj6ufnAQLMMLthrKSEOpg7ndY6mSYidiW+rkF7Mx86rKgNuAzEauIslptbgzRrnsr0ZaNYRzV2ryYNhpHAi3ZISHUH8Jni36bl7V7z1+ghnqLioXeW+bap6f3fqGCmTC6jSmbsfntMe0Yi3YnmxerdgW36qPgCP972T9RRWepsvKLg+QoOfFeugH5bjzhm6c9TMqN4IhN1ATP5QGKudF36M7WAWt8OFUbS2Jvk18cy68dxNrkOQw/FX/DdgaOQ34GRRodtxO63+GprUwpRX0ZllS7SyLtvRcmmkh0qA9aUL1yP5uYE7U/zZxg4k/oMTR93VtL94TKosRxiHihiPPSGPzmBe87sfcumrtVCvUdkahh3JOlX30VlPmnFwch95mZFYmMkUo9J93G/Tq+jeOX2YzNbI9B2jWWw2k5DoPv1XqrSwa/92hRXVdbQQWvsd/LWh7Q/sq8b6JKcCyXiUZylFzqhFzN0rvxhG9e7mEaM6yyhOARd6/M3tImRvfEKoydzeBh2cb0zC4cxe8L14cBv3bkgz6Lig7/KP4m9/LcWr0LQ3JxWCNCv8NDaejUbzw/titjFvi52yHabeXrqyitvqz2s8nMOOn+jX7OkGOI4bq3FjkOuq/E3jiVMZgR+/XM8yIEXFRs1qvJVWlt0g5cOPlYZ35YiznXNgi0LBfVtaPtHjs6vo3jytBextVoCx43bRuLTurxxNO0pYWo59tTHtq/g/fAKsoDupd1ffFOz1EoPzYkqqi9dabryETnjbm5uVc/e+cd9ev+gfa4kO+d2SPQG0KGV4SSa6USZZh2Qm/Lubwi93I2o5ijIF7+jFaef5yPiUKiY3IMwzDNIP/rm+b2MkYjIDuWaQhWcgzDMH4ol2Wo7QhxEJAdyzQGK7k9j35hb5jSzIZWhmG8pKDvAsWYw21HaJaNRdpUfhaG2OUfGxyTYxiGYRILW3IMwzBMQgH4/xnRI04WpwpWAAAAAElFTkSuQmCC;" vertex="1" parent="1">
          <mxGeometry x="-404" y="239" width="324.83" height="151" as="geometry" />
        </mxCell>
        <mxCell id="lOKb49YVc73qP3Tbzx3c-69" value="" style="shape=image;verticalLabelPosition=bottom;labelBackgroundColor=default;verticalAlign=top;aspect=fixed;imageAspect=0;image=data:image/png,iVBORw0KGgoAAAANSUhEUgAAAbkAAADlCAYAAADOb4kQAAAAAXNSR0IArs4c6QAAAARnQU1BAACxjwv8YQUAAAAJcEhZcwAAFiUAABYlAUlSJPAAAEiFSURBVHhe7Z1daBxXlviPl2F2HmZgYfbhb4PiaWwZsyzNYjoMSHIcGiexM9vygM08WI2iB0smwcgKSHqRQ9OM9SIJRhYmJpIfHNPSw2LBSr0bOx80yUTSkzBBLIuJbHodgbwP/4GBmYf5DwP+n3M/quvjVnVVf5Sl0vnBpaXS7Vv33qo6556PWzo0Pz//EoGrV68CwzAMwySJv/vXf/1X9SPDMAzDJIu/U58MwzAMkzhYyTEMwzCJhZUcwzAMk1hYyTFMwuma3QZKLtue7VJHGObgwEqOYRIMKbj168fh6a1u6BzZUEcZ5uDASo5hksrQZ6jgAB5eZQXHHFxYyTFMUpl/Fw4d6oR351nBMQcXVnIME5WuWdh++RJefjakDnjRcTBPla4h+Gxb/k0U/PmzIVesrJn2LbpgdludI6Ad61zuYuoXUbdvXTjEz2Bbn1uV7e3PYNbUHsO0GVZyDBMXJPzXP4Hzx4/D04cP4SGWp/jz+U/WW58UMnQDrh9XP5//NQSoOcnTp6I/sjwFUP0KVJAeSIGvw/on5/HrT60xPsS2jx8/D9dVe6zqmDhhJccwMTH0axT+8BRudR+CznffhXexdB46BN23UKm0GDoXai6psOA8/LqertqeFv2RpRMOHboKD+n4+TEIp3/JciQFjmd9eBW6D3VaY3y3E9vrvgpimOc/gU85y5OJEVZyDBMLXfBPnfS5Df/tCpFtjKBCaGliyBAIHfcQFdfN/0RVR8ZcFIuMmId/F1ruOJz4Z3EgGG05Pr0F7707D57RbMzDyHu3RF+OX79R37JkmBbBSo5hYiWEVdUsQ7/Gs6CO+/d5VC7/Bv8ptVxExaKV8lP4/r/EgUCk5Uh6dcSr4DQbIzAtzcP2zwHDKFjJMUwsbMCIlPBw/pOXsN3G2JRUOA+BdByd99+kloOx0G7CLhia/VRZZv8J/1bXyAyvEP/re+oLQOc/scuSiQdWcgwTF/PvQvfVh9Jld/4TWKesw89mobVJh9pV+e8gdByyMTIt4mvHf/Ubf8WK/allQ67DJ7SBnGJrnQGWmcU/wwmR5OJ1xTLMq4aVHMPEyAYqus5D3XD1llZ21+GTdUrXl39vlq7ZsZqr0kLF147/Cn7jp+Ws7Mqnol9klW1jG6yzmP0OKzmGiZ0NmB/Ryk6oOjSkPmtBMkYX/OZXZFI9hO+xtaGhWiGlRef5lZ+Ws7IrO6GzmzIro/Tpv0B6ITshrBdym00+JiZYyTHMK4OUXSdcbVUyRtdvQOg4bOv6J5/AJ/ZCuf1IoMtSszEPN2W+f8g43gb89zZ91svE1Eo4XDILw7QCVnIME5WN/wYh030zFmsWlcNrGJYG2+/6za9Qzch9eIcOeYtQpsevw40QytSK44VM99cJJYFbFbQSDpXMwjAtYnd39yWu9F7ij1y4cAlZhj57Kfls6CXaOo6/dc1uW3+zjnfNvtze/uzlUJezLnQNvZRN4d9sxyO3D10v5WFnO46iG3X3y31MlVp123Hf+nocL19uz3a5/obFGqerPS5c2l1YyXHh0khBoa10DYr1l5999pkotUMuZaOVA4F/k/WtIwbFELF9kwLzFINCDVByUZWiY4z407bqs22YZgXIhUs7Cys5LlwaLV0vh2ZtiofYRoU067W+REFrZhYlvr2+tO78BH/49o1Wl6F46gUpLcs63H45qy3QwPr0d+wzjdHZaVR4s14rlguXGMohUnLlchmuXr2KvzMMwzBMcuDEE4ZhGCaxsJJjGIZhEgsrOYZhGCaxsJJjGIZhEgsrOYZhGCax/N1//Md/qB8ZhmEYJllYWwh6czl1aP9w+MgReLG7q35jGIZhGCfsrmQYhmESCys5hmEYJrGwkmMYhmESCys5hmEYJrGwkmMYhmESCys5hmEYJrGwkmOYg0ZlXGy/Gauo39tIZfwInmscYjgVwxjxV3J/XYB//P4I/B9X+cf/GYef/qmqKil03RfeW/lHf+iV3/uD6zvtoroAOXyAD4+7+qKPu0tvL+TGF6ASU/f2E9WFXjFHuYWYrx2d0339NCYB7XfNbeixGL9HpTeMIK7AWK+q7xbcfveXKo45DLgXx0w3Yt3xVaGK85Kz+kZF39fu9qowP1sCyBThg6w65AbPJ8fpMyeBY3V+J/t+ETJQgt/FdQ8xjIv6ltyPM/CXn+VlwZ9/9NcS/PRFdzil9adxrLeJbRThjz9PqYOvmEwG8vm8VTKbm7BZKkBfd4zCnKnLZmkW5uO8HJv1BXF1YRZKeDsH4rq/dMkdM9z/jroZ7MMmlPLdgcraCyqt3m7oypfw6xnI6PaoOXFf33Ep46+gjGPI5M6C6YkUi4HuQv1xIpmM7ru9nHO2mzoLOepL+SvsKcPET30l9/cj8MfDU7L8YhX+9xdF+Bse/tEf7sBPZA0zZN29wBUj5PF7g+I7e4KTIzA9NWWV8u4ubJRotYkPYqE7FhfOfiE1uCreKFMejHeBQoI6A5tQuL4Qj2Ak4YwfwYK4Ah8XUPLni1Ckm8UP1/2ly5DJanLUpbkuiX5ABAVfGe8G6hagktvYXYWybm+V2luHxaJT6VS/KuPMZiB31n1NSVkegS5sLFMsBY9RcXJE991esi7lmYK3pJaDL1nLMa+A6DG5Hw/Cn39GP5TgJ38SRwxU4ae7BfgRPkx//sUU/EUd3auksoNQLgnxgitpjh+8ajbhHHwotE4BPo7lYpyDD0iqB52v8gjveNQl587K39tCFs6L23ATtsMohMo49FGnMkXY8CgXIgXZQfvxKnwpzTh4y6PjyMLLQHG99Yua1NmcWLSUv2Itx8RPQ4knf/tx8DLvJy+64ad/BfjL4VX484/Vwb1O9n21ei3Bw0YFq29AX66SvTGOKlQWxh3xjVzvgrNOA22a4jNjJlecre3KuIxZUd153aD6u9eN6+23bzwJezem240g42Qsh4yaeKw5KYjxfI88E42oOBbaWef94lgtoQpPn9BnBjpD6JnKI+oT9mpk0KDgDChXJZw85q2fwoUeWoJDrdVvktQxOIkf7LJkXgUNKbkf/dXfYU+JJv+AFt7ffr4OfxQW335BuVWQJ8/ieRTJ1dRXQEGVL8JiqQSLRVrGl+FpE6evLlwX8RkSyEVqs1SEfGYTSoVu35hjKX9EWAQinhO8fkFkDIj6vWnFlDIitknxJN+Ekaig0NXW3HAcsVIVO0It57XkdRyr+D7aWu2CFg7XpevRZGl5iKYQBdVttKfwG6G/EMyTZxWoVFTxJLjYSUEnze3mNis5JnaiK7k/jQslRkL0L24l9v9m4R/2WqJJBFLHaL0ZF0pIZYowNzUI2WwWsoNTUF5tbjWdOjsCG+RyWqU4ELaZHYTpVRnr8V9Jk5tKxXPo/AGSnJSojgG9wLoyDoPfVfEkb8JIFqZ3d+FFA1ZCdkq1WXAlT7SFFAyN0Nm8CSiVOwWfOJaBJ7MwNj7uLH6pu6V8zRI+QgsHPAvF1lbDWGZV2KbrgDbS8ZDzWn0mtCIack3cYDY2C3now0WOKN3dwlo3egxwNMfFo/WkqQUcwzRCfSVHiusFKjYq/0PbBMhKyMBfDhtibX8/IuN1fy2gstt/d7MWArFCAflW7l9IZSHlkWHBK+lM8VZIBaRiOqh6FqfcmjAr41otjb3oNmNKQc+eMywGKvBQGMYj4eaILFq0oB3lkU/f7ZawPAAnz5lia3sM4dqkhUutyOQt6THg5C1mL1Ffyf11E37yJ0oywfLXDPztZ2il/WLV1xX5l8Mlofx+9IfrIi63H2nVSjcYtBxuSVdigdLGKaa1UPGxtKJCcbkFmLesiTsyFtM0ynrIdBoFsbaEN0NlTYQjNTiirLnrMWwpUIkftgQUsW0AP/OofEJBFq5LAbzwLAgUVnYlWsLrZLWSyzds4pNauOwR68iRvBVTHJVhwlBfyf2sBP97YleVVfi/hwfhL4HJJFlUgrTNYBN++j/jwdsM9hTaSokQ42gWXBFPr8pVsBBwhTx0RUzQ8EBJJ0do31QBCjZroiU67pWQhWkhPHExcKf9JoKV8CISUHQ2YsDG6VaBFng0q1W7AENmYsZBqlNZpAyzd2go8aQuPx6EP/5cPrD/YHgLyp5EZ56FCvoHEzVxhVbBUtn5C/NwbcosQIof5UvrNmtiPdS+p/oEuz21u7dViQ0WOvOV4n3P5CEHKnvPmDQiqLlZ62ZH2hNQKndE/NFv43SrqVmt4WKQ2XNsOTFMPdqj5JC//fyW3D7wp3x8r/RqFHpNUTclF1DoJWQ6dgBud52VrFGHlIoJmQjXpnYn5tDysI8Cj6ufmkNbDwZro6o2S6OCDZWgEQmdFIILAMpG9aD3l5Wgb9zr8q0ly5zDmvXQWbbYlspS/TC2zfC1cYTaxqKVv8hANbm6KWOztiVFu5Pbkz2MC6zr8hnyLgp0Jmj4JBmGaRVtU3IkLP78iz0Yn3Nlv4m9XkLBofVTXIfpZtxSlsWRF+9CFO2Lt0jgg0/H7Yj3/6n3C4o0bHpfYB7FG8liWyeitKmFJAk91e682M+G7XoUYmPUMh5VHFHMI70KSvbdm8SCfRB79pp0w2anYFEoADOiX2qeyOVrv770Fg/ImJJlzGiLShBKMdowZVdimQ+ZXGRZZ8b9em5kXJeGTZmONO6cPideG5mxaduSotyJ5pgpKkSrvzqG+wR+p49ZSlS+vzNnXXsq8lxyjVOEOc+iIDiWyzDtpI1KjsjCHw/nZXxudwF+pI6+UlzZb2KvV7EEG+urMN30ip2EDr0SCUXJpmyfLIFFbPtDuYiukTor94HR+wVFGnYBlQTtbXMr2ghtItmpdSiitBfvLcR2C4UncBLbDFIQ0aAtAfIcYm+cmEdcIqASob6b3pYhU92bR8fLzGC/Vuk1VvKVYJ7ruzoVQVlpi8q14AiDKbsSS9nkZjVhd82G0Ysi05GuL2Vo0ntY1TmFXi/ifWJbdGhX7JNnSmHZqcJDW3/lJbO1V3ikvpOFD0aKwj2s69L1F5mi5CI3bX+oPkN1iVVicvsyjJ1Du7u7L8vlMvTmcurQ/oH2F1HMiWGYcNC/vukryX2RUfctNgq99Jms6XxptzlPCcM0QJstOYZh9hLSGo7zPZIxZqgyjAFWcgxzkIj7X9/U+dc+DNNuWMn5ol8sHKbwfy5g9gsqUzXoPy60EPlKtDgzVBnGCcfkGIZhmMTClhzDMAyTWA7Nz8+/RODq1avqEMMwDMMkA8td+cvXX1eH9g//cuoUfPf4sfqNYRiGYZywu5JhGIZJLKzkGIZhmMTCSo5hGIZJLKzkGIZhmMTCSo5hGIZJLKzkGIZhmMTCSo5hmPhZmxRbgG6uqd/byNrkKTzXJMRwKmYPwkqO2dPsLA0IYdi/tKOOtA8pDOsJ3h1YHPATmvpvWCYDGtlZgn6q4y4DA3juoHHuwA4qh359DlEGoH9yCdZ2bN/T7fv2YQ1uivMtYYt+tHMs2PbdZYD0KLzXow4Rfm2JYp7vtUkcv61e/wDWc522p38U0rAM8zHcQ8zeg5Ucwyh6zlwUnw++CRLq38LnW/h58QzY5bNg7T5M09+I5W/qWw7pNFy6eFGVNMDWFjwYvuCjVEjpXIDc8DJWS0Naf4++tjwD1y7cb62l0s6xqDlMv30aOtQhO+m0bsdezsBR9XeJnI9ry1uwpc+Nn1tbyzgXA7Bo12cdp+Ed6tIX3+K3mIMGKzlmT9Nx+Z54q839yyZx2GJ6+mEMhWGQUN/59gsg2X/pjEfFwdo3aJ2gzSCEPFoOX9fTDJ1X4MbEhCo0zjm4RMeX7zqFNLI2eUEqnYtzUH58D+7r792j763A7VG3EmiOdo5FzmEa3jltvqYnruh27KXHoRB3lj6y5uM7nANRBz/Lc7RQ2YLp+/YOd8AbbwstB79nLXfgYCXHMBZKGPoK9R34/RdCssKbXjMOvia9cBGFff/bKMLrWIRGeuBNYUxuQfW5OCBZm0SLBT/To1B2CXtJB/RcNh1vlDaORc9h+m14o+EO6+uQhrF+54Xo8FmodJymcWzB59+yljtoJE/J2QLaIn5h+esH4KavT34H1pbsdbH4xRSC2tf1d5bgphU3qXPeEDGFSNj650THWNyxDe/Y+weWnHUaaNMUOzLOg61tmgtdd1E3qP7ujclFuGbYOxGDonbrzK0UhijU7xriVYGuym/gAX4IC0+5x0K5+RzswPNt+kxDymaWSasK275yGVqnyAJo41isOex8rYmxPIeq0HEmRdkBRzvpcxue2y9gx2twAj/YZXnwSKwl9+DugIhfgPDvp8Uq7sHMBaOwFL79meWab5/qq5hCv0/Q3Wpf1acVq6yPgvrCDAoJOn6x/nnFinkUbs/Nwe1RXPqaYgpthNxgNHZHH+ALp4CICLmSxNzgHIxRm3OjcCntNw+SB8OnxFyIWBNNZyCNXbNQaKFucG3Vd1VqC69mEYZPdiClrVxwDuHtoyzaSPvGgjyvijlMBwzm+x/WYG1NFXtCjWbnB/iePn0U5dGUfB6dFuRRkIerqCKZg0Ry3ZX4JI2tPIb798iffw/ur1CGFcku50rO6Nun+iqmsGWIKQh0+6p+eZRap/pbkB5dwbbo+ETd816ao/jKZejp6YGey7q+O6bQLpQATY/CpL0POA99jS+zUU9cgbKa+z5qs+cy3Lin5tN3JZ3G+VSxJjq/V49YRL9mPXDj8WP47nGYcWmh7nZthXFV1iy8jstX6owXWR6uWaGnSGnjvUMxt3t2i01ZLdAJR6Nek+27cHNy0lDuSiVhpJ1jwVn8QWhsOPGa/2C2Zobh2rAqFy5ge0HekLD4WHhM4kmskkuP/tYp0KwVun0lVxNctyfckqsH3hOKy+zHd7ev3VwkeB1JEkHnRSvzzaM7sIOrVavAa3CC6m//4C9QWg1ZLU35SF109ECHR4YFr6Q918uXxq9ZWPS1dAj1AFflztLdmnvPQsWkgpId7FaoPAAnsI1Q0xAGsmyXlw1li9ZoRl7pWDou40KFFiO1Up6Tiz7yAnjd5QxTnwOeeKJ9+yljZlrHa2Lph3I5hIND+fzDoc4rXJMXIOcow/DATwK1nA7o+610JU5TujfFtJbWWqRcKS63BIuW9XBfKommaeE188PgsvR3VdaUbgqtIMvNhoUEPTbir3CtjETyNJAVSu5Wd3xTLQ4asUDI0nUpDVlU5qOHdo8lOh09qPhExqRPnJRh6nDAldwrJj0Kt1dWoGwqLjdP28DV8417csUsBNPMMORCJGgEQkknp2hP1wxM2yyIlui4WHC7LLXl7dq8TGgLD5ZxoWBzs1FBi4kIdPNp0PqVVqg79qXdbO4YUxto+1ga5GhKWYcKvaD08XY8l6ug2GKYzN7mgCu5YBeajh8EBckbo3Ze8ut1mIqs2DDf/xBNuNCKWSo74ZcyxgTDtbkj3mZB+6Auza3YrIcVmdrdNPFcM4fLUgn/tGHzst7zRfFZp7Uky20xnTPwaQiTxop9zTg3dlub1NtsycQxltYQdA+omGIjMUwmkRxwJadXyYYV584afDojV4R+m1Ybp07GmojPqZ8bxO2us5I16tDRc8bHlRW2zVp693s99nnD4+qn5ojpmqGFOySE+hfw6X2/zcvavecvUEO9RcVC7y1z7dPTe79QwUwY3cmUzeja9hGZeMai3cnhF2G4aPpoBuffvsjwf350TNEbO9VZqqz8DhoH3l3ZM6Ey8mZUTErEj2gbwLB4WMInRESjttKllPclWBSxD4ph0bkvwESjiRPWZthhHI+Mh9F+tdwMjoWO2xHvChyQ7z5U5785IMftiD1FadNKUkCBrNpdFPvZWhdrjH7NsA9iz140N6wU6pS8gR037cnSr74y7ZvT6EVDyH1mZkUiY6c01ZR5SO7kfjFmLDh+mc3Y3LaP2MaiXI/emOma2Fvab11PdU1xbKJflAFsS+iyPz/6nqTv58Qix5SUFBzLZZILx+Twkb5BrjS9z0pln9H788bmVtr4Oil53tu0x255RsVA8HO7s8nzkkCcQ6WE7W7JWJh46FfuwZBcRNfoOC2tFXr3oTo/7e+j899wyIgIbSI9E3I+xTsVsd3pmW04gW0Kd1dLiH7NhICLis2qNbkqrU3anmQUOz7WmR/WgsK1DUJkHsr7hbINt8SYseC40rTHcaW5xVhsY9FJPZ54Wg+8d2VUxNrk9ZTXVGRt4jX9zhOjxntgBe9Jen7UPflAvNNzFMqPJ/CvLtTeOtN1ZJLNod3d3Zflchl++frr6tD+gfbkUKyAYZj9A/23h2vLcl9kO7wkJui/WZCVd2nusWsBxyQdtuQYhokV+a9vmtvLGI2A7Fgm8bCSYxgmXpTLMtR2hFYQkB3LJB9Wcnsa/WLhMKX5jbcMEw8d0HflImWNhNqO0Cxr9yk78yIMtS2+zuxlOCbHMAzDJBa25BiGYZjEcmh+fv4lAlevXlWHGIZhGCYZWO7K3lxOHdo/HD5yBF7s7qrfGIZhGMYJuysZhmGYxMJKjmEYhkksrOQYhmGYxMJKjmEYhkksrOQYhmGYxMJKjmEYhkksrOT2ApVxsR0it9CafyvKMPsGde+PVdTvbaQyfgTPNQ4xnIrZQ7CSi5nqQi8rtDq86jmSwrCe4K3CfK+f0NR/wzIe0Eh1AXJUx116e/HcQWOvQhWVQ06fQ5ReyI0vQKVq+55u37cPFRgT51sI+K/t7RwLtj1bAsgU4YOsOkT4tSWKeb4r4zh+W71cL9ZznTb7fhEyUILf8bN3oGAlxzAusufy4rP0KEiofwXlTfzMnwO7fBZU7kCB/kaUHtW3HDIZyOfzqmQANjehlO/2USqkdLqhK1/CahnI6O/R10oF6Ou+01pLpZ1jUXOYyZ2FlDpkJ5PR7djLOVddOR99pU3Y1OfGz83NEs5FL8zb9VnqLOSoS+Wv8FvMQYGVXMykBlfFW1rKg6bHmiFe+Rxl34ciCsMgoV79qgxSx3lUHFQeoXWCNoMQ8mg5PKynGU6OwPTUlCo09hIINVuadQpppDLeLZUOKrmN3VUo6++t0vfWYbHoVgLN0c6xyDnMQO6succnR3Q79pJ1jK+6cN2ajxc4B6IOfm6U6KybULhj73AK3pJaDr5kLXdgYCXHMB6UMPQV6lX4UppxcN5rxsFD0gt5FPbv51CEYytBFqGRLJwXmmETtu3CuDKOFgt+Zoqw4RL2khRkB03HG6WNY9FzmMnBWw13WF+HDBTfd16IlM9CJXWWxrEJ5a9Yyx0UEqrkwvnoSWjQ3yj2ImIcVn1bHKG6AGNW7AOPG/355hiJsa46Z0vjTbZxONHxFHccA+dnwT5emp8FZ50G2ow6B9Q2XSddd1436DtH3n77x3xUvInabWCqpTAkA8QQrwp0VT5C1Uh/wr8o91goN5+DKjx9Qp8Z6LQpAGlVkc4ZbKEiC6CNY7Hm8OSxJsZShW2h40yKMgXHT9LnE3hqv4CpY0CH2WV5cEigktM+evwxX4TFUgkWi7iUNPnoFaXZXhHjAOHzpydZxhFyJIC7C/igy3gArQBLBTzuEr7kMhHfx3pFOl+pCPmMue5egFxefQUar21+oOwUBhFpZA5K+SPiOom4Ek17IOq6Yr+t2At+KaNiPrmgpIhG0ELd4Nqq76rUFl7NIgyf7ECKXLngHMLbR1m0kfaNBaluiznMBAzmybMKVCqq2BNqNNVnqMIQH0WZ6pTPstOCTIE8vI29Yw4CiVNy2kefL1G8YhCy2SxkB6egvE6ZVW4fvQLrF9d3VXxjFTaEnwMPlzYhU1yHF6syHiDbILnnXAWmzo7ABn0f6w3R+bKDML0qYxF7b8WohGWmCHP2+VldhaEmhGdjc5DBeVdxJTq/V2dYGGMveK3KKuaz6Yn5ZGF6dxde7DY6Li3U3a6tMK7KmoWXGhypfx+U8jXL9AgpcrzvcJwbq3aLTVktaIccjzqeJ7MwNj5uKLNSSRhp51hwNM/kmU8e8x/MZiEPfbiYEaW7G9vz86REwcfCYxJLwpSc9vOjAEpVoYqrP6vAMThJMuvJM88DminecghC7aoigepIfrBW965VYCoLKc+zusdXjGSh+KZ2N0ADc+Ced39qimVxyq1ZsvCBWJS0Ps6i7wOHUA9wVVYXZmvuPQsVkwpKdrBbpvIAnMQ2Qk1NGMjaRevaWzZpfWfklY4lNYiLF1qg1MpGSS5SyTMQvLWDYZwkTsmJ1a5wTXZDl6PkAZ/pcCi/fTQoJrUA89Yq+Y4UhnuOFAzdkq7EAqV2U0xroWJUQtFp1xzo2EunUVimjsmrten0SzWPwWXp76qsKeJOtIIsNxsWEvTYiL8StjIS0TJdJ8uUXLDumKdaMDRigZD161Iaskgr2Eu7xxKdVBYVn8iYRGPRFCdlGB+SmXiSKcLi+jpsmIrLbdISKOHiCO1dKkDBtlJuiXxvB7hSnl6Vq2MhhAp56GowQcNiv81BKNwuS+0pcG1eJrSFh/ZPQbvYdFGrq1Cua7SIpWXqjn1pN5s7xtQG2j6WBkl1KutQoRejBu8MUZUro9himMzeJGFKruYeI99ZylRkxRZSFW9toP0++dK6bZW8LlOYY+TJs2iChFbHUtkJH5QxXhmuzXbPQbDbU8d3gpIYGsXhslTC37R5We/5othubfy1siimuAAfhzBprNhXwbmx29qk3mZLJo6xtIag+0LFFBuJYTKJInFKLjADTMTn1M8to5bG/EHW/jThcfVTXLjddVayRh1S2XNCEJkI12a750BbMYbrWq3Ax6JD/puKmwKt3g+FlC7Dx3f8Ni9r956/QA31FhULvbfMtU9P7/1CBTNsdDFTNqNrK0hk4hmLdjGHX5jhQup6Aeffvsjwf951TNEbO9VZqqz8DgqJc1fWVo6UVr4A8yKWQHEi2g7QDcMtTk6wHmISPPTuQDzfvNjLFSEG2CzWxtc8HO6V8TDar9ZVQIFAx+2I9wKq9xyquRnrxb7inxxxpihtxjAH2SmVRYnXVcQRRcyPrqnsuzeJBfsg9uw16YZFpFCn5A0cjGlPln71lWnfnEYvJELuMzMrEhlPpemnzENyMed0/BPnRGYzNrcVJLaxKNejN45aEftSc9Y1VtcZxybXMkWYsyWD2Z93fZ/S97vkIAyJSsHxXSZ5JDAmR6nj67BIG69KBRVTwM8nJ6FYWm/Lq6KyU+tQxPOJdwfi+QqFJ3ASzyXcOrFAwq+ESgnHvCljYeIBX1+FD+WCuUbqrLRMVF9pbkh90NxMO+RBhDaR9s+BvK50DrE3TsT80K7KyL6brqsQZq3AZumaXJXWJm1PMoodH+vMD2uR4doaITIP5f1N2YabKvYp9C/te1wPm7FqJrax6KQeTzwtCx+MFEWsTV5jeZ1F1iZe5xeemDreF+t4n9Lzru7TkninZxE2dqfwry7U3jq/92UyyePQ7u7uy3K5DL25nDq0f6C9OBQjYBhm/0H/7aGvJPdKNqOYo0D/4YKsvHxp17WoY5JKMrMrGYbZ88h/fdP6/Y3+BGTHMomFlRzDMK8G5bIMtR2hFQRkxzLJhZXcnkO/WDhMaX6TLcO8OlIwNJKnrJFQ2xGapXKHsjPz8OGr+hdOzCuBY3IMwzBMYmFLjmEYhkksh+bn518icPXqVXWIYRiGYZKB5a785euvq0P7h385dQq+e/xY/cYwDMMwTthdyTAMwyQWVnIMwzBMYmElxzAMwyQWVnIMwzBMYmElxzAMwyQWVnIMwzBMYmEl58fapNii0L+0ow40wg42MyDaEWVyCY8wDNNW1LN7c0393kbWJunZnoQYTsU0CCu5NrKz9BFcW94CSI/C7blRGFPHmb3BzpJcgDS3kInAzhL0qwVP/6SPWDQJaP09v+8geizG71EZCCOI1+DmgKrvFtz2tgzFMYd+dQcGsH+Gua47vh3YwXnpt/pGZQDncAnWdtzt7cDi3WXxzL3Xow65wfPJcYaYkzp1e/pHIQ3LMB/XPcREJoFKDh9U8UC9aqtpB37/BSo4uAi3712Gnp7L0DdxGTrkH5kDztbyXViM8wbdqi+Id5buwgO6ZYNIp+HSxYue8s5rhjvbUTeNfdiCB8MXApW1F1RaAxcgN7yMX09DWrdHzS3PwLUL913K+Fv4nNaVb582PmtiMXBhpv44kVB1O07DO9SXL759xfKG8YMtuXaTTsFR9SOzt+i4fE+8Mef+5XiXHiSo07AF0x/FtBAjpYAfwYJ4DT6dQWl+cRTGUGj70nkFbkxMeEqfyWpy1KW5nhP9gAgKfm3yAkyTkrk4B+XH9+C+bu8etbcCt0fPOJ6vnW+/wJlNwzun3deUlOUpyOEY06NzwWOMVLcD3nhbaDn4PWu5PQkrOYaJmS04A0MX6YcZ+DSKUdMwZ+C9URLEAedb+wYe4MelM6fl722hB96kceMMVJ+LA8GsTcK1ZfxMj0J5osdgmXVAz2X7ceU9Sb8Nb3h0HFl4aRhboUVNnWVnlLpIx+m3xaLl829Zy+1FEqXkZBB4WDys9EDntP/e4R6RySD2mEE/xStC35/1vy/7oVagtn44A+HYztKkM3bhF7OwxWlEbML6Dtb3dUE1O04DpniRQK58vXEL7xj7B5acdRpo0xSfMc6Dre1aAtAALOoG1d+9MbkI1wZ7J9zj1G6EuZWxHIAHd+Ox5qQgxvN945loBOea4lhwEd70i2O1hB14vk2faUiFcG+sfUN9QsV7JaSbX7kqofM1b/2Oy3AfLcG+MA1FqUt0vAYn8INdlnuTRCm5nv45keAhvAvpizA2R79j6ddPLgnOC3J1eJGSQfBvo7i03FqGaxfCCKlw39f9oLiBvR/vWQ+2amdmGbasuEUa0ipm4ZeU8ODugIhNUJuiPq4eH8xgfYOQbm6crYFcTTRGRx/gC3jexPkpmUfMAQpkOa80z37zIHkwfErMhYjniJsjiMauTWRQkGprbsJ3odJCVOwIlr9xLRoQHcca7Udbq13QwuEjufAzWVoeoilEwfMqPhH4jdBfaBVHIUVzu1WFMAYqEy/Jcld29EBPj1xV0X8dfqOHfseiHigSkPSQXZoj3z4lg+DfLk/A/RVSjFswfT9YgIX+vujHafUv9mv96HD1g+IM3927Z8Us7quYhW9SAn5HuFDuqfrivHjYtYJsdpytQQmp9ChM2vuA4w29QjbQcfoKlNUc9Il5vQw37ql5811Jk+uJ5kLGcozxI0X0a9MDNx4/hu+irPwVPROqzRlX8kRb6IC+K6RVvQkoa/dn8K4wxbEMbN+Fm5OTzuLnHlgerlnCp2jhgGeh2Nq9MJbZc6jSdYBOOBpyXnd+EFoRTpiSYNpKBxztpM/tphZwTHs4QDE57a+/CG8e3YGdHVsBVIykLbZ/8BGSRLPf19iyLifc0rZHxk5Q5Jj8++nR3zoFqV6dO1aQrepni6CAfFM+Uhe4gNCLhRrBK2nPvPnS+LVpDN1mTCnoPWcMi4E1+FoYxlfCzRFZtMvLzvKNj/1it4TlAThxxhRbY5j2cYCUnFoZCpfdBcg5ynCIlOJmv69R7fhkXXa8JpaEKK8bdXy0qp/NgpbDb6UrcZrSximmtbTWIuWKCnttCRYta+K+jMU0TbuvjZeOy1eUNfdRDG5klfhhS0AR2wbw8xIqn1CQhSssV1vxLAgUVnYleR3IaiWXrzvG6odauLB1xDTJAVJyCtqYvbICZVMJ40Zp9vtxsRf62UGuxMdQprgZCbiZYchFTNDwQEknp1BhD8/AtM2aiE13t5weuDEnNE8sbmQr4UUkoGirP2DjdKtACzya1apdgCEzMRnGhwOk5GouLfJ3dZiKrOhDs9/XBLvWdFyh8eB5q/rpz/c/RNNSHSJuRsrOX5iHa3NHZAFS/OjS3IrNmlips5cpLO2+Nj709Mv+U7zvB3nIgcreMyaNCGpu1rrZkfYElLX7Iv6Y9tk43WpqVmu4GGTPGbpf4stAZZJJApWcn6BSmzb9VpIibqV+NtLs9zV6hWpoZ0dtyA2bBGCkVf30x+2us5I16tChYkImwrWp3Ylvo+Vhnx88rn5qjnZfGz90UgguACgb1YPeX7YM1ya9Lt9asswZrFmP2v1xTWWpDsW2Gb42jq9DaTml/EUGqsnVTRmbtS0p2p0cdRHWPDoTNHySDBMfCVRyNUF1bYDiNfSOO/kY1FaSlAq+BItra7iapdgOvb7nAkzUSSho9vuaWladilWJuBK1Iff4hU+UMNOqfnqwLI5h7LeMh9F+tdwM9pmO2xHvI1TvF1Tnvzkgx+eI/0Rp0xZTmlDtLor9bK2LNUa/NtgHsWevSTdszwTcloaLEdEvNU/k8pX9knv56M0clGjkTZYxo+8PQSjFaMOUXYllMWRykWWdGffruZFxXRr2lnJ19+tz4rWRGZu2LSlHU7Ku0b9J+0Z1f3UMdxvm9TGHEo1SlwiO5TKvlkS6Ky2BsEXxGrz7LPcSpXuvoDDBPy7PwPTwMK5m8XO7E8bmVkK83qnZ72tkO2N6/5WIK22hUKe9X1Ha8aNV/XRDQodec4TtirmVlsDtlXswJBfRNTpOy31g9H5Bdf4HWJfOf8MhVSO0ifRMyHkT7y3EdqdntuEEthmkIKIR/doIAdcCdLzMDPbrHr3GSr4STPZL7eUbpbT8CawRFm1RRUg40ZiyK7F8bnKzmrC7ZsPoRbExW97LNO4tfU6c8zTtv1yxLTq0K9aYPfwcvrb1V14yW3sz39g8P1HqIjs/wPf4EZfbl4nGod3d3Zflchl++frr6tD+gfbfUEyGYRiGoLcNXVuW+yKb8YZEgV7kTNb0pbnHrgUcsxc4eNmVDMMkFmkNx/keyRgzVJmGYCXHMExyUC7L2N4jWedf+zCvHlZyBxb9YuEwJewGXoZ51ahMVduG93YiX4kWZ4YqExWOyTEMwzCJhS05hmEYJrEcmp+ff4nA1atX1SGGYRiGSQaWu7I3l1OH9g+HjxyBF7u76jeGYRiGccLuSoZhGCaxsJJjGIZhEgsrOYZhGCaxsJJjGIZhEgsrOYZhGCaxsJJjGIZhEgsruZZQhfneI3D4yDhU1BGGYfY4lXGxDWlsjz20lXGWJa2ElRzD1KG60CuEYW6hNf9/PAgp4OoJ3qBFlf4blvGARqoLkKM67tLbi+cOGmcVqqgccvocovRCbnwBKlXb93T7vn2owJg430LAf3Vv51iw7dkSQKYIH2TVITfY7ljdxWsVrxmO33beXC/WN542XN3s+0XIQAl+F8P9dhBgJccwe4jsubz4LD0KEupfQXkTP/PnwCOfK3egQH8jSo/qWwOZDOTzeVUyAJubUMp3+ygVUjrd0JUvYbUMZPT36GulAvR132mt9dHOsag5zOTOQkodsiMWNt0FKOnzG5Hz0YeVNvW58XNzs4Rz0QvzDh0VoW7qLOSo++Wv8FtMs7CSY5g6pAZXxZt1yoMmcdhisu9DEQVckFCvflUGqeO8JkjlEVonaAcIIY/WwMN6muHkCExPTalC4yyBULOlWZeQJiuzWyodVHIbu6tQ1t9bpe+tw2LxnFFhNEo7xyLnMAO5s+4eS+uxCweaKZbktfChunDdmo8XOAd6LjZKdNZNKNypdThKXbzj4C2p5eBL1nJNw0qOYfYUSsD5CvUqfCnNODjvNePgIemFPAr793MowrGVIIvQSBbOC82wCdt2AVsZRysEPzNF2JjKGpRZCrKDpuON0sax6DnM5OAtj44jCy8DxfV6ixp9HbDu+84LkfIsVKLUlaTO0pg3ofwVa7lmSaiSC+kntwWeRZzBqt8LY37+8GoF5rFt3e5hX/+7JnpfqL6s2wvzjuc6mv/f0U8RN6ngUTvY3oJ93FjqxmRCYBuLE7lK9sY4vP3I9S446zTQpil2ZLyu9eZe/d0bk4syfyoGRe3WmV4p4FDuzRriVYGuykeoGulP+Bfl8gqyCM1U4ekT+sxAp03GS6uKdM5gCxVZAG0cizWHJ495x5IahDJaqUN1B1mFbaG3DIoSWz1+kj6fwFNxAaPUVaSOAR1ml2XzJFDJad83/pgvwmKpBItFXM4Z/eSS0myviDNARvryaQVVKnQbhBoKqu48FMhRL+rmsS61q9w4HhroS/6IqC/iHfRgW0RpiwQq9snWz3xmE6vmYdgak2qvUKrFCGjsKo5BCjEuyA1G/XCMC8rOhz4i5B4S1xQtniK1WSqKOTBfV4n/3Jto4/xpoW5wV9V3VWoLr2YRhk9gIKWt3GoOgeyjLNpI+8aCVLfFHGaaGUz1GaolxKQokVSnuIDSgoxS1yIF8vA2joRphsQpOe37zpcoZjAI2WwWsoNTUF6njCW371uB9YV7YlX68mVdkjHOVVR1YVasLjPFdXgh6mK7q7uw4eO4b6gv+Jfiuop3rOKKUsmyKG2Z+jmN/XyxXoIPj8nHzBgjoLGrOMamIY7RHpQAzRRhzj4uGnsTMih1dgQ21DUdojazgzgHamy+q2Pz3JuIPn9ZmN7FaxDKStBC3e2uCuOqrFl4qcGROuNFcOFjWaG4MOrDQWVwTBurdotNWSJoWxyPek2ezMLY+LihzErBb6SdY8HRPJNnPqmehb2Jj4XHRCZhSk772lEIpKpQrdoKoPlPcuPJM89DkinecgoeayVtX0XVBMyHLl99avCWIUDdor4IorTl309IkbCnH2p1Fqfc0jILH4jBxBwPIKulWTepHRxryjOPwatj89ybaP/8aZelQ6gHuCr1wsZp4amYVFACg90KlQfgJLYRahrCQJYtWtLesokzZGbPjoXZlyROyYkVp3DhdUOXo+TrpAPXQ/vVO0M+NK3sS5S2wvQzuE7qmFhCoi5oXEiHJwVDt6QrsUDp3hTTWnDHDhsFFwGVBZi3rIc7Ukk0TQzzZ3BZ+rsqa0q3E62gSqVWSNBjI/4K18pIRCsULf081i3l3fFNtThoxKogS1dYsO6iMh89tHsszEEjmYknmSIsrq/Dhqm4XBdtp5V92UvjaiUpciXuwgbFzUgwFfLQFSJBIxBKOjmCi4B8AQo2C6IlOi4W3C5LJfzxHvBsXtYWHto/BbRk+uxFrYAC3XwatH6lFeqOfWnXmTtu1AbaPpYWoRJDTN4YoipXQTKGGaUu03ISpuRq7ijyVaVMRVZsgKiB4Fb2pYG2AvsZPBYds2gqMI88eRZupjQpETcjZSf8UsaYZbg2q+JtFrQPKl9at1kP6wa3ciPEM38Ol6US/qbNy3rPF8WVndaSLItiOgvwcQiTxop9FZwbu61N6qaMzxYSx1haQ9A9oGKKVgwzSl2m1SROyQVmYYk4lvo5Mno16267ikaDSkJw0Mq+RGlL7w0y1KXtDyLu5TcWBOt8LAZj2igbDbe7zkrWqEMqe04IJxPh2tTuxBxaPfYx4HH1U3PEM39k4X4opHQZPr7jv3lZuvf8hWSot6hY1O4fxz49vZ8LFcyw0Z1M2YyubR+RiWcs2p0cdRHmxP+Z1DHFWuw0Sl2Nzmhl5dcsiXNX1lZvlMa9gEKd/PkUl6HX9HTDcBPJAPKdcqrtXhnnIZeYSDunP7hoZV+itGXvJ+3jE/Eo2i9G2x8eyXrZKZUFKOr0qpgVtZUXD134JAwD1gbXvHV+2q/WVTDMk3jvIO3hQwGpxjTWK/vgiD1FaVMLNxLIqt15sZ+t2bhsjejzh30Qe/aiuWGlUKfkDey4aZ+VfvWVIRnFQi8aQu4zMysSGTuV95V0J+fEmLHg+GU2Y3PbPmIbS6pTjsPoe6VFqxqXFcN9Ar/Tx2wK3v5M2p8zelsKDsKRlBSlriRMbJ0JQwJjcpSqvQ6LtNGpVFB+ffx8chKKpfXmXs1EG0UpoI1N0zvnKMYj9natr8KHcnHoopV9idCW1U/qqIpHiXcNlsTbKiSyvSJlolkZcGgrZGhfWZPzJAQivRKpdn7xIJvmKXVWWiv07kM1JlIf1Idpx3MfoU0kOyXHJt6piO0WCk/gJLYp3F0tIfr8CaEVFZtVa3JVWpu0PckodnysMz+sBYVrG4TYKC3vQdq2sinGjAXHlRHPQRMLIyS2seikHmOMrAoP9biwyEtmG2vhke07eA/gc0b3gL4n5XNWhI3dKfyrnSh1EbW3zu/dmkx4Du3u7r4sl8vQm8upQ/sH2g9DfnqGYZgo0H976CvJfZHNKOZ2QS+IJisvX9p1LfaYqCQzu5JhGCYA6dKPeS9oaAIyaZnIsJJjGObgoVyWobYjxE1AJi0THVZyTB30i4XDFN54y+wXUjA0kkctF247QpxU7hTQxjS8sYhpCI7JMQzDMImFLTmGYRgmsRyan59/icDVq1fVIYZhGIZJBpa78pevv64O7R/+5dQp+O7xY/UbwzAMwzhhdyXDMAyTWFjJMQzDMImFlRzDMAyTWFjJMQzDMImFlRzDMAyTWFjJMQzDMInlACm5HVgcOAX/cmoS1tQRhmGYlrA2KbY03YxBuKxNshyLAltyDBMjO0sDQhj2L+2oI21mZwn68XzinJM+YtEkoPX3/L6D6LEYv0dlIIwgXoObYvFJxVXf3pahOObQr+7AAPbPMNd1x7cDOzgv/VbfqAzgHC7B2o67PVxA310GSI/Cez3qkBs8nxxniDmpU7enfxTSsAzzcd1D+xxWckxIUBgJobGEjzSzH9lavguLcV68rfqCeGfpLjzYUr/4kU7DpYsXPeWd1zpUBRuOumnswxY8GL4QqKy9kNfnAuSGl/HraUjr9qi55Rm4duG+Sxl/C5/jGNJvnwZDj3CMuBi4MFN/nEiouh2n4R3qyxff8rMYAlZyDBMjHZfvibf03L9sEoftgwR1GrZg+qOYFimkFPAjWBCvwaczKM0vjsIYCm1fOq/AjYkJT+kzWU2OujTXc6IfEEHBr01egGlSMhfnoPz4HtzX7d2j9lbg9ugZOCqrCna+/QJnNg3vnHZfUxkiyeEY06NzwWOMVLcD3nhbaDn4PWu5urCSY5gDwBacgaGL9MMMfBrFqGmYM/DeKAnigPOtfQMP8OPSmdPy97bQA2/SuHEGqs/FgWDWJuHaMn6mR6E80WOwzDqg57L9+A78/gthxsEbHh1HFl4axlZoUWNXiwai1EU6Tr8tFi2ff8tarh7JVHI7a7A4KeMF0i8/CSa3fI0dWFuadPr0/Xz5Alx12dsXvvo1PKrwDULL1ZrH126rL+IAtnatPlh+enXc1w2EY8G+2cfSbxp/0DldbctA97AQSCS0crquwwUUdQ5DEnUuDf3oH1jynW8n/m2a4jPGa2Brm66DrruoG1R/98bkosyfch1TuxGmV8ZyAB7cjceak4IYz/eNZ6IRnGuKY8FFeNMvjtUSduD5Nn2mIVVfd6DepT6h4r1yGULZ2spVCZ2veet3XIb7aAn2hWkoSl2i4zU4gR/ssqxPApUcCoALwzC9TKsr6UunIO21C8oF4YEE2wW4NrMMW5Y/Pw1p5cv3ButJwGBbtvYvpbdga3kYJurEH+rx4O6AiAMIVw/FE3ClJvug/PQoEOR48PgMHjcISjEWITtG4fbcHNwexWXsFo3fLBCtc4qx4LgNbff0YztzUkBSvTFql0q/lk5R57B9kKuJ+uEYP3wBz5u4NDtLH8k5wvmXYx8V19x8DSQPhk+J6yDiOWLigohp/lCQamuu2Xs1FCp2BMvfuBYNiI5jjfajrdUuaOHwkXzuTZaWh2gKUfC8ik8MfiP0F1rFUUgJEVGFMAbqQSZxSk4EsvEzPboC392TvvT79x5DmVwnBkiAaf/7d/fuWb78+8qX7w7Wm9q/ge1/tzIHQ6ZAeBSwH8Jdofqg+7yFCtUxnhWpcNyrOD2WS3MUR7gMPT090HNZ19+C6fsGYanPKdrG75na7sB2euTKkf6j8hvULhU13Khz2D6UkEqPwqR9/Nin0CtkAx2nr0BZzVGfGPtlvOZqbL4raXI9qXgOnT9Akkefvx648RjvuSgrf0XPhGpzxpU80RY6oO8KaVVvAsra/Rm89UxxLAPbd+Hm5KSz+HkIcLFpWcK4GL1GMS6Krd0LY5k9hypdB+iEoyHndecHoRXhRLPPfmQ64GgnfW43tYA7CCRMySn/OK64h1yB/Y7LvzUEc2v1b0+4pVCPjCngo1jze/u3LxWB+rlB0qO/dQgt7e4h4edIVNArZMcqTscGLsKbR3dgZ8dWABUU1d/+AX924j6nue0gos5hDFBAvlk3qR28th2uy11vJe2ZV1/inj/dZkwp6D1nDIuBNfhaGMZXws0RWbTLy87yjc/dabeE5QE4ccYUW2MOCglTcmollk45sp/8Ca7f8ZpYKqEc0w9U1PabRPndw6H6JlyTFyDnKMOh0pcbI+octhO0HH4rXYnTlDZOMa0lW6y0KSgutwSLljVxX8Zimib++eu4fEVZcx/FYGGrxA9bAor2hlxC5RMKsnCF5WorngWBwsquJK8EWa3k8nXHWP1QCxe2jhJFMhNPDjLpUbi9sgJlUwnlstnndJAr8TGUKW5GAm5mGHIREzQ8UNLJKdo3NQPTNmuibeuGttMDN+aE5jG7sFuMlfAiElC0xyFg43SrQAs8mtWqXYAhMzGZfUHClFzUYGxwfe1v9wSVQ7b//Q9xLgdrYyHfWoepyIotpsE5jEjUuewQcTNSdv7CPFybMguQ4keX5lZs1sRKnb1MYYln/jz09Mv+U7zvB3nIgfYimJJGBDU3a93sSHsCytp9EX9M+2ycbjU1qzVcDLLnDN0vlJDFLz1ICglTcnol5l65UVq9Cu478KuP7KiNqijcasFxvefGXH/RFQdyu5isBIO2oDaI+q1aRXxO/dwQfsI46hw2RqNz2aFiQibCtandiW+j5WEfAx5XPzVHPPPnRSeF4AKAslE91O71a/btMYpasswZrFmP2r15TWWpemLabaM2jq9DaTml/EUGqsnVTRmbtS0p2p0c74KW0Jmg4ZNkDiqJc1dq18gWpXcPyPgJuZpEOjf9wUUt20zFcES8hVL25b4wdwKBvX3afyfq0/4p2ragg+HWKnnYqkN7rHIz5j60itqqldLOl1DpruHKmeJINJ4LMNFU8kJNGF8TY5J7A4mocxiJKHMp3keo3i+oxn5zQPbBEf+JdH1qMaUJ1e6i2M/Wujhn9PnDPog9e026YXsm4LZQAGZEv9Q8kctX9ovGLt/MQUlO3mQZM/reFIRSjDZM2ZVY3ItKPyzrzLhfz42M69Kwt5Sru1+fE6+NzNi0bUk5mpJ1jf5NWlzr/uoY7jbM62MOJRqlLhEcy2VqJC8mR5sqKeCMd97WloydiD1TK/dgSC66XFA69gqM6X1JIt6yhcKO9kSteF+/ZLVPJ1DxGfF+uznxhgRVCR8UejVPrQ6tXv370CrkWG7jWGB5BqaHh3HljJ/bneaxRMQSemJM+IRZLrSIcxiJCHPZcVruA6P3C6qx095C6sMNh1SNdn16JuTYxHsLsd3pmW04gW0GKYhoRJ8/IeBagF60mcF+3aPXWKm9maJfai/fKKXlT2CNsGiLKkLCicaUXYnlc5Ob1YTdNRtGL4qN2fI5onFv6XPinKeFLLEtOrQr1pC5TIroa1t/5SWztTfzjc0rEqUusvMDfI8fcbl99zOHdnd3X5bLZfjl66+rQ/sH2gtD8RGGYZhXBb0R6Nqy3BfZsMciIvQiZ7KmL809di3gGDecXckwDNME0hqOcy9ojBmqCYCVHMMwTDMol2Vs75Gs8699GCes5JgY0S8WDlPCbuBlmFeNylS1bXhvJ/KVaHFmqO5vOCbHMAzDJBa25BiGYZjEcmh+fv4lAlevXlWHGIZhGCYZWO7K3lxOHdo/HD5yBF7s7qrfGIZhGMYJuysZhmGYxMJKjmEYhkksrOQYhmGYxMJKjmEYhkksrOQYhmGYxMJKjmEYhkksB1zJVWG+9wgcPjIOFXWkdbSzbYbZp1TGxdafsQYfiso4P1NMNBKn5KoLveIhyi205v82M6+G2K9jdQFyeD5xznEfEWoS0Pp7ft9B9FiM36PSG0ZoV2BMLJqouOrb2zIUxxz61e3txf4Z5rru+KpQxXnJWX2j0otzuACVqrs9XPjNlgAyRfggqw4pqlUan5wn3cbYQsXz39ez7xchAyX4HT/fTEjYXckwLjZLszAfpwzdrC+0qwuzUNpUv/iRyUA+n/eU3LGUqmDDUTeDfdiEUr47UFl7IW9FN3TlS/j1DGR0e9RcqQB93XdcyvgrKOMYMrmzYO8RLQK6uvNifLINbACwP4U8dLn7kzoLOWq//JVHATKMicQpudTgqngLSnnQ8GAz+4ZXdR1JyGZQwBauL8QjREmo40ew0K7AxwXUAPkiFEn++3FyBKanpjxlyGU1CRx1aa5Loh8QQcFXxruBugWo5DZ2V6Gs21ul9tZhsXjOqcy+KuPMZiB31ntNM0V7G/j9dbLYEE9/UvCW1HLwJWs5JgRsyTGMjU04Bx8KrVOAj6MYNQ1zDj4gzRV0vsojKOFH/txZ+XtbyMJ5oeU2YTuM8qiMQx91KlOEjamsQ5lJUpAdtB+vwpfSjIO3XJVpQVN21EWUxWbqT+psTixEyl+xlmPqkzwlp+ImnlhOtQLz4zafP8VBfJ8Rc5xhzM+lFKltoord7HXERnJ1v1MHU7xI4JcAg31YwDE6+rDgrNNAm6HnzdY2zYWuO68bVH/3xuS8/faNJ2HvxnS7EeZWxn3IiIjHmpNCG8/3yDPRiIpjoZ113mSRtYwqPH1Cnxno9GosD5VH1Cfs1cigQcEZUK5KOHksXH0LQ39Sx+AkfrDLkgnDAbHkUNh156Egnf4ibkDB675u5W5xUV24LuIMJFiKpRIsloqQz1CMoNsgdKO1LYRWb7dcBeeL2Da2X8Ql9CZ9J5owbgZyNfUVsBP2PkAZnjZx/mjzJinlj4i5ELEYsXIPQs0d9nvTiillIKPiSb4JI1FJDVrW3LDfwqaVaKul9Mi1aEB0HKv4Ptpa7YIWDtfl/WqwtLxEU4iC6jbaXviN8F+AbfH8nITjnq+koJPma3MbazFMMAdCyYmgPX5miuvwYlXGDcqru7DhE+BInR2BjfVdrEPxjCxks4MwvSpjFu7VY9S2SRGI8EqJ4g+D2Da2P4jfETGITSjcaZGgDkQJqUwR5ux9WF2FobAyyECUeauRgeK6isXQ+QMkuZ47igG9wLo6nlRW8SRvwkgWpnd34cVu9HFlp1SbBVfyRFtIwdAInc2bgFK5U8C7whzH8vBkFsbGx53Fzz1Qytcs4SO0cMCzUGxtNYxlFqSAzFSfCa2Ihly4L+jnCvLnDMo9BcfJlIMnTS3KmIPBAVByKhaAIutDVxJDavCWOZCfykLK8yyaVo9R29ZxiTycT1WhWrUVOAYnqf6TZ7b22wwF75vykboIPW81MsVbIRVQba4Xp9xiLyvjWi2N0+g2Y0pXz56TStWxGKjAQ2EYj4SbI7Jo0YJ2lEc+fbdbwvIAnDxniq29AqoLMCxXM4ZrzTDROBBKTqw6M50RH2CKLy3AvLUqviNjCg6itq3qC9dkN3Q5ikyhjge0HG5JV2KB0sYppmXYk9QYYeatEYLnOnVMLO1Rl7ZOIaUGR6TiKVyPwY2sEj9sCSjamsmj8gkFWbjCcrUVPyVhZVeiJbxOViu5fN0xVj/UwqUtlhS5/6X1WlyfMlhxDBONAxKTiwglTxyh/T8FKNhWxS3TQZkiLK6vw4aphHIXtYAUuRJ3YYPiZiTgaE9SxAQND+2et9jJwnRJaJ5Y3MhWwotIQNFWv3fjdMtBCzya1ardhSEzMUNDMVdc7OFP5M5vxnXOMJoDoOSiBqllNhutJPOldduqeN3gfozadq0++fVSpiIrNsyTZ9GkTkrEzUjZ+QvzcG1GmbdGCJ5rHfMJn9gQkuz7sv8U73smDzlQmX7GpBFBzc1aNzvSnoBSuSPij+6N0+2iZrWGi0Fmz1FtmpZWZaDKpCIZr96FaTbhmBZxIJScXHW6V6mUxq8SGRxot1gOV9B28YLH1U81oratNrL6rZhFfE793CBud52VrFGHlIoJmQjXZpR5awS/uUaqarM0KthQCRqR0EkhuACgbFQPen9ZCfrGvS7fWrKMKYHCTe3+6FNZqu5Yb/uojeNhKC2nlL/IQDW5uiljs7YlRbuTzQsmu4JbD6HgdHZn+MQX5uByINyV2g20SansvTJWRG41kbpOf3BQi40M0/v3KhWYF/uyzDGzaG3jw26tmCnlfQHmsf2KiGH1wuHubhhuNHHCsjjyYp+e6EfvEegqGPoh3keo3i+ozj+m3UT2+E+UNiPOWyPUMh5VHFHE/GjeZN+9SSzYB7Fnr0k3bHYKFoUCMCP6peaJXL6yXzR2miscfCZ8AoW+PwShFKMNU3YllvmQyUWWdWbcr+dGxnVp2JvK1Z3T5xTvoKSMTduWlFSnrGvwb1pvTsF5gkd3PP2neLGT4Pgsw9g5GDG51KAMruNTtrkp40Rif9j6KnwoF5gOslPrUMTK4v17+Tyu4J/ASVxhGgVdxLaxdZimVx7RF7D9ArbfRzGsJyehiOdo/DVWJHRKqJSoI6ofKC6N/UidlfvA1Pjo/KQ+6PzOVXSENpFI89YQcu7oHGJvHPanhBo0g8LRb+6EMGwBejFjBvu1Sq+xkq8Ek/1Se/nodVWrURIotEVFOi6SiqMb0Dq3vZRNblYTdtdsGL1I9766l2ncm/qcQq/TM2BbdGhXrCd7WFtliLrHPAUH4PhO9RmIHTAxuXKZ/c2h3d3dl+VyGXpzOXVo/0B7fCjuwzDM3of+TU5fSe6LbCapRLzQGU0/jt0xYeDsSoZhYkFaw83uZYwx65RJBKzkGIaJB+WybOqdkz7/rodhzAD8f5ARS3TuqhOhAAAAAElFTkSuQmCC;" vertex="1" parent="1">
          <mxGeometry x="145" y="223.37" width="351" height="182.26" as="geometry" />
        </mxCell>
        <mxCell id="lOKb49YVc73qP3Tbzx3c-70" value="" style="endArrow=none;html=1;rounded=0;fontSize=12;startSize=8;endSize=8;curved=1;entryX=0.5;entryY=1;entryDx=0;entryDy=0;exitX=0.5;exitY=0;exitDx=0;exitDy=0;" edge="1" parent="1" source="lOKb49YVc73qP3Tbzx3c-68" target="lOKb49YVc73qP3Tbzx3c-67">
          <mxGeometry width="50" height="50" relative="1" as="geometry">
            <mxPoint x="-68" y="227" as="sourcePoint" />
            <mxPoint x="-18" y="177" as="targetPoint" />
          </mxGeometry>
        </mxCell>
        <mxCell id="lOKb49YVc73qP3Tbzx3c-71" value="(N, 1)" style="text;html=1;align=center;verticalAlign=middle;whiteSpace=wrap;rounded=0;fontSize=16;" vertex="1" parent="1">
          <mxGeometry x="-238" y="130" width="60" height="30" as="geometry" />
        </mxCell>
        <mxCell id="lOKb49YVc73qP3Tbzx3c-72" value="(1, 1)" style="text;html=1;align=center;verticalAlign=middle;whiteSpace=wrap;rounded=0;fontSize=16;" vertex="1" parent="1">
          <mxGeometry x="-238" y="209" width="60" height="30" as="geometry" />
        </mxCell>
        <mxCell id="lOKb49YVc73qP3Tbzx3c-73" value="(N, 1)" style="text;html=1;align=center;verticalAlign=middle;whiteSpace=wrap;rounded=0;fontSize=16;" vertex="1" parent="1">
          <mxGeometry x="-85" y="286" width="60" height="30" as="geometry" />
        </mxCell>
        <mxCell id="lOKb49YVc73qP3Tbzx3c-74" value="(1, 1)" style="text;html=1;align=center;verticalAlign=middle;whiteSpace=wrap;rounded=0;fontSize=16;" vertex="1" parent="1">
          <mxGeometry x="88" y="286" width="60" height="30" as="geometry" />
        </mxCell>
        <mxCell id="lOKb49YVc73qP3Tbzx3c-75" value="" style="endArrow=none;html=1;rounded=0;fontSize=12;startSize=8;endSize=8;curved=1;exitX=1;exitY=0.5;exitDx=0;exitDy=0;entryX=0;entryY=0.5;entryDx=0;entryDy=0;" edge="1" parent="1" source="lOKb49YVc73qP3Tbzx3c-68" target="lOKb49YVc73qP3Tbzx3c-69">
          <mxGeometry width="50" height="50" relative="1" as="geometry">
            <mxPoint x="-68" y="227" as="sourcePoint" />
            <mxPoint x="128" y="315" as="targetPoint" />
          </mxGeometry>
        </mxCell>
      </root>
    </mxGraphModel>
  </diagram>
</mxfile>
